<svg width="40" height="40" viewBox="0 0 40 40" fill="none" xmlns="http://www.w3.org/2000/svg">
<path d="M29.2559 8.84573C29.3259 8.9077 29.3259 8.9077 29.3973 8.97091C30.8486 10.2605 32.1092 11.8274 32.8893 13.6177C32.9301 13.7071 32.9709 13.7966 33.0117 13.886C33.3105 14.5511 33.5428 15.2247 33.741 15.9261C33.7745 16.044 33.8097 16.1615 33.8451 16.2788C34.0085 16.8396 34.0845 17.4097 34.1545 17.9881C34.1601 18.0336 34.1658 18.0791 34.1716 18.126C34.4381 20.3328 34.1625 22.4718 33.4708 24.5761C33.4545 24.6276 33.4382 24.6791 33.4214 24.7322C32.9068 26.321 31.892 28.0237 30.7689 29.256C30.7069 29.326 30.7069 29.326 30.6437 29.3975C29.3541 30.8487 27.7872 32.1094 25.9969 32.8894C25.9075 32.9302 25.818 32.971 25.7286 33.0119C25.0635 33.3106 24.3899 33.5429 23.6886 33.7412C23.5706 33.7747 23.4532 33.8098 23.3358 33.8453C22.7751 34.0087 22.205 34.0847 21.6265 34.1546C21.581 34.1602 21.5355 34.1659 21.4886 34.1717C19.2818 34.4382 17.1428 34.1626 15.0385 33.471C14.987 33.4547 14.9355 33.4383 14.8825 33.4216C13.2936 32.907 11.5913 31.8915 10.3586 30.769C10.3173 30.7324 10.2759 30.6958 10.2333 30.6581C8.09708 28.7593 6.67353 26.3638 5.858 23.6392C5.83611 23.567 5.81421 23.4948 5.79165 23.4204C5.62189 22.829 5.53283 22.2362 5.46001 21.6266C5.45441 21.5813 5.44881 21.5359 5.44303 21.4891C5.17642 19.2822 5.45198 17.1431 6.14366 15.0386C6.15997 14.9871 6.17627 14.9356 6.19307 14.8826C6.70766 13.2937 7.72251 11.591 8.84561 10.3587C8.90758 10.2887 8.90758 10.2887 8.9708 10.2173C10.2604 8.76604 11.8273 7.50537 13.6176 6.72537C13.707 6.68457 13.7965 6.64374 13.8859 6.60288C14.551 6.30417 15.2246 6.0718 15.9259 5.87358C16.0439 5.84008 16.1613 5.80494 16.2787 5.76949C16.8394 5.60607 17.4095 5.53007 17.988 5.46013C18.0335 5.45449 18.079 5.44886 18.1259 5.44305C20.3327 5.17655 22.4717 5.45215 24.576 6.14378C24.6275 6.16009 24.679 6.17639 24.732 6.19319C26.3209 6.70778 28.0236 7.72263 29.2559 8.84573ZM23.1716 7.93291C23.127 7.91968 23.0824 7.90644 23.0365 7.8928C20.3763 7.12031 17.4187 7.41598 14.8943 8.5025C14.8328 8.52864 14.7713 8.55478 14.7079 8.58171C13.1237 9.28748 11.7694 10.3259 10.5876 11.5873C10.5511 11.6259 10.5146 11.6645 10.4769 11.7042C9.35479 12.9164 8.47172 14.6153 8.00575 16.188C7.98886 16.2434 7.97197 16.2989 7.95457 16.356C7.13728 19.1009 7.37526 22.1016 8.50238 24.7203C8.54159 24.8126 8.54159 24.8126 8.58159 24.9067C9.87628 27.8129 12.3214 30.1473 15.2872 31.2971C18.3634 32.4459 21.6953 32.4142 24.7202 31.1122C24.7817 31.0861 24.8432 31.06 24.9066 31.033C26.4908 30.3273 27.8451 29.2889 29.0269 28.0274C29.0817 27.9695 29.0817 27.9695 29.1376 27.9105C30.2597 26.6984 31.1428 24.9994 31.6088 23.4267C31.6256 23.3713 31.6425 23.3158 31.6599 23.2587C32.4772 20.5138 32.2392 17.5132 31.1121 14.8945C31.086 14.8329 31.0598 14.7714 31.0329 14.708C30.2735 13.0034 29.129 11.5564 27.7252 10.3391C27.6718 10.2922 27.6184 10.2454 27.5633 10.1972C26.2957 9.133 24.7542 8.39195 23.1716 7.93291Z" fill="#FFF5F5"/>
<path d="M22.7148 15.5433C22.904 15.8126 22.9945 16.0927 22.9503 16.4221C22.8478 16.6702 22.7114 16.8957 22.5732 17.1254C22.5346 17.1915 22.496 17.2577 22.4563 17.3258C22.3331 17.5362 22.2084 17.7458 22.0837 17.9553C21.9997 18.0981 21.9159 18.2409 21.8322 18.3838C21.6271 18.7334 21.4207 19.0823 21.2133 19.4306C21.2505 19.4514 21.2878 19.4723 21.3261 19.4937C21.714 19.7111 22.1009 19.93 22.4874 20.1499C22.6317 20.2317 22.7762 20.3131 22.9209 20.3941C23.1291 20.5107 23.3364 20.6287 23.5436 20.747C23.6084 20.7828 23.6731 20.8187 23.7398 20.8556C24.091 21.0582 24.2997 21.1918 24.4274 21.5834C24.5067 21.9129 24.4462 22.1055 24.2922 22.3967C24.117 22.6757 23.9804 22.8245 23.6555 22.9205C23.1799 23.021 22.8915 22.8153 22.4892 22.5733C22.4231 22.5347 22.3569 22.4962 22.2888 22.4564C22.0784 22.3332 21.8688 22.2085 21.6593 22.0838C21.5165 21.9999 21.3737 21.916 21.2308 21.8323C20.8812 21.6272 20.5323 21.4208 20.184 21.2134C20.1632 21.2507 20.1423 21.2879 20.1209 21.3263C19.9035 21.7141 19.6846 22.1011 19.4647 22.4875C19.3829 22.6318 19.3015 22.7763 19.2205 22.921C19.1039 23.1292 18.9859 23.3365 18.8676 23.5437C18.8318 23.6085 18.7959 23.6732 18.759 23.7399C18.5564 24.0911 18.4228 24.2998 18.0312 24.4275C17.7017 24.5068 17.5091 24.4463 17.2179 24.2923C16.9389 24.1171 16.7901 23.9806 16.6941 23.6556C16.5936 23.18 16.7993 22.8916 17.0413 22.4893C17.0799 22.4232 17.1184 22.3571 17.1582 22.2889C17.2814 22.0785 17.4061 21.869 17.5308 21.6594C17.6147 21.5167 17.6986 21.3738 17.7823 21.2309C17.9874 20.8813 18.1938 20.5324 18.4012 20.1841C18.3453 20.1529 18.3453 20.1529 18.2883 20.121C17.9005 19.9036 17.5135 19.6847 17.1271 19.4648C16.9828 19.383 16.8383 19.3016 16.6935 19.2206C16.4854 19.104 16.2781 18.986 16.0709 18.8677C15.9737 18.8139 15.9737 18.8139 15.8747 18.7591C15.5235 18.5565 15.3148 18.4229 15.187 18.0313C15.1078 17.7018 15.1683 17.5092 15.3223 17.218C15.4975 16.939 15.634 16.7903 15.959 16.6942C16.4346 16.5937 16.723 16.7994 17.1253 17.0414C17.1914 17.08 17.2575 17.1186 17.3257 17.1583C17.5361 17.2815 17.7456 17.4062 17.9552 17.5309C18.0979 17.6149 18.2408 17.6987 18.3837 17.7824C18.7333 17.9875 19.0822 18.1939 19.4305 18.4013C19.4513 18.3641 19.4722 18.3268 19.4936 18.2885C19.711 17.9006 19.9299 17.5137 20.1498 17.1272C20.2316 16.9829 20.313 16.8384 20.394 16.6937C20.5106 16.4855 20.6286 16.2782 20.7469 16.071C20.7827 16.0062 20.8186 15.9415 20.8555 15.8748C21.0581 15.5236 21.1917 15.3149 21.5833 15.1872C22.0381 15.0777 22.3607 15.2699 22.7148 15.5433Z" fill="#FFF5F5"/>
</svg>
