<svg width="28" height="28" viewBox="0 0 28 28" fill="none" xmlns="http://www.w3.org/2000/svg">
<path d="M3.01263 8.11803C3.82285 7.4752 4.86898 6.93952 5.87234 6.69814C5.91375 6.68792 5.956 6.67746 5.99866 6.66693C7.60651 6.28487 9.4811 6.455 10.982 7.16935C11.042 7.19665 11.1023 7.22436 11.1641 7.25248L11.2622 7.19584C11.2916 7.0581 11.2923 7.05789 11.3108 6.88929C11.5875 4.92362 12.4579 3.00115 14.0456 1.74924C14.3799 1.50262 14.7393 1.29414 15.0973 1.08453C15.1477 1.05466 15.1486 1.05461 15.2 1.02411C15.7095 0.723945 16.2212 0.509042 16.7852 0.332194C16.8303 0.317782 16.8757 0.302946 16.9221 0.288099C18.2942 -0.128676 19.7 -0.0604888 21.0748 0.283417C21.147 0.299691 21.1476 0.299632 21.2211 0.316197C23.1371 0.774374 25.0079 2.25241 26.0526 3.9013C26.0937 3.97023 26.1343 4.03995 26.1748 4.10921C26.1969 4.14669 26.2189 4.1843 26.2416 4.2229C26.2882 4.30256 26.3356 4.3823 26.382 4.46211C26.4512 4.58092 26.5216 4.69972 26.5919 4.8179C26.9957 5.50662 27.3032 6.2309 27.4964 7.00764C27.5069 7.04948 27.5173 7.09169 27.5281 7.1348C27.8464 8.46575 27.8843 9.86564 27.7146 11.2175C27.7092 11.2608 27.7047 11.3045 27.6993 11.3492C27.5992 12.1497 27.473 12.9545 27.2533 13.7311C27.2179 13.8637 27.1919 13.995 27.1679 14.13C27.0471 14.7732 26.8722 15.4206 26.6514 16.0362C26.5708 16.2726 26.5001 16.5122 26.4283 16.7514C26.328 17.0848 26.2264 17.4172 26.1118 17.7461C26.0567 17.9069 26.0059 18.0695 25.9545 18.2315C25.8736 18.4836 25.7848 18.7313 25.69 18.9785C25.5909 19.2375 25.5023 19.4977 25.4199 19.7625C25.3175 20.0916 25.2 20.4127 25.0766 20.7343C25.0093 20.9156 24.9487 21.0984 24.8903 21.2828C24.7908 21.5973 24.6768 21.9047 24.5589 22.2127C24.4696 22.4542 24.3926 22.699 24.315 22.9444C24.2532 23.1315 24.1848 23.3151 24.1142 23.499C24.015 23.758 23.9251 24.0178 23.8427 24.2827C23.74 24.6119 23.6261 24.935 23.5017 25.2565C23.4554 25.377 23.4104 25.4984 23.3678 25.6203C23.1649 26.187 22.9088 26.5863 22.3657 26.8709C21.8709 27.0696 21.424 27.0463 20.9146 26.9182C20.721 26.8704 20.5283 26.8366 20.3313 26.8062C19.9878 26.7514 19.6499 26.6793 19.3106 26.6028C19.0433 26.5459 18.7743 26.5031 18.5044 26.4604C18.3138 26.4281 18.1252 26.3892 17.9363 26.3475C17.6804 26.291 17.4242 26.243 17.1654 26.2017C16.8441 26.1504 16.5274 26.085 16.2096 26.0149C16.0152 25.9746 15.8202 25.9422 15.6241 25.9109C15.3023 25.8596 14.9851 25.7941 14.6669 25.7238C14.4809 25.6853 14.2941 25.6546 14.1063 25.6258C13.6695 25.5563 13.2411 25.4534 12.8109 25.3509C12.5735 25.2944 12.3352 25.244 12.0956 25.1978C10.9449 24.9751 9.76179 24.7295 8.65688 24.3336C8.49807 24.2792 8.33755 24.2313 8.17667 24.1835C7.62155 24.0168 7.09116 23.8047 6.56051 23.5717C6.4289 23.5143 6.29618 23.4591 6.16367 23.4039C4.17896 22.5545 2.47432 21.1409 1.39832 19.2653C1.33151 19.1492 1.26281 19.0336 1.19461 18.9183C0.881438 18.381 0.646378 17.8351 0.448883 17.2458C0.431317 17.1935 0.413704 17.1411 0.395606 17.0872C0.356876 16.9652 0.321421 16.843 0.288224 16.7195C0.276404 16.6756 0.263954 16.6314 0.251776 16.5861C-0.122523 15.1223 -0.0551036 13.6729 0.293125 12.2163C0.30796 12.1455 0.307838 12.1451 0.32301 12.0727C0.668184 10.5519 1.72766 9.20708 2.89281 8.22104C2.9322 8.18711 2.97205 8.15298 3.01263 8.11803Z" fill="#FF4C5C"/>
</svg>
