<svg width="28" height="27" viewBox="0 0 28 27" fill="none" xmlns="http://www.w3.org/2000/svg">
<path d="M5.8604 6.68653C5.90185 6.67631 5.94331 6.6661 5.98601 6.65557C7.5919 6.27455 9.46403 6.44608 10.9638 7.16127C11.0241 7.18873 11.0844 7.21618 11.1466 7.24447C11.1789 7.2258 11.2112 7.20713 11.2445 7.1879C11.2738 7.05014 11.2738 7.05014 11.2921 6.88147C11.5672 4.9167 12.4358 2.99594 14.0209 1.74557C14.3548 1.49913 14.7135 1.29092 15.0712 1.08152C15.1217 1.05157 15.1217 1.05157 15.1733 1.02101C15.6821 0.721221 16.1928 0.506668 16.7561 0.330237C16.8013 0.315831 16.8464 0.301424 16.8929 0.286581C18.2632 -0.129219 19.6673 -0.0598209 21.0409 0.284934C21.1134 0.301334 21.1134 0.301334 21.1873 0.318065C23.1015 0.777293 24.9706 2.25562 26.0152 3.90465C26.0563 3.97364 26.0971 4.04281 26.1377 4.11214C26.1598 4.14981 26.1819 4.18749 26.2047 4.22631C26.2514 4.30601 26.2979 4.3858 26.3442 4.46566C26.4135 4.58453 26.4838 4.70275 26.5541 4.82099C26.9581 5.50994 27.2657 6.23421 27.4593 7.01106C27.4698 7.05292 27.4804 7.09479 27.4912 7.13792C27.81 8.46866 27.8491 9.86808 27.6804 11.2194C27.6752 11.2627 27.6699 11.3061 27.6645 11.3508C27.5651 12.151 27.4403 12.9554 27.2214 13.7316C27.1861 13.8641 27.1601 13.9952 27.1362 14.1303C27.016 14.7732 26.8419 15.4203 26.6217 16.0356C26.5413 16.2719 26.4711 16.5111 26.3995 16.7502C26.2995 17.0837 26.198 17.4158 26.0837 17.7446C26.0287 17.9053 25.9779 18.0672 25.9267 18.2293C25.846 18.4812 25.7583 18.7288 25.6638 18.9759C25.5649 19.2349 25.4758 19.4946 25.3936 19.7595C25.2916 20.0884 25.1748 20.409 25.0517 20.7304C24.9846 20.9117 24.9244 21.0939 24.8662 21.2782C24.7669 21.5928 24.6528 21.8997 24.5353 22.2077C24.4462 22.4491 24.3694 22.6937 24.2919 22.9391C24.2303 23.1262 24.1621 23.3095 24.0917 23.4934C23.9928 23.7524 23.9037 24.0122 23.8216 24.277C23.7192 24.6062 23.6053 24.9286 23.4812 25.2501C23.435 25.3706 23.3906 25.4917 23.3481 25.6136C23.1458 26.18 22.8904 26.579 22.3479 26.8631C21.8537 27.0615 21.4079 27.0371 20.8989 26.9087C20.7053 26.8607 20.5135 26.8275 20.3165 26.797C19.9731 26.742 19.6358 26.6693 19.2965 26.5924C19.0293 26.5353 18.7607 26.4927 18.4911 26.4498C18.3005 26.4173 18.1126 26.3784 17.9238 26.3366C17.6679 26.2799 17.4124 26.232 17.1537 26.1905C16.8325 26.139 16.5163 26.0738 16.1986 26.0035C16.0041 25.963 15.8095 25.9298 15.6134 25.8984C15.2916 25.8468 14.975 25.7815 14.6568 25.711C14.4708 25.6723 14.285 25.6417 14.0973 25.6128C13.6608 25.543 13.2335 25.4397 12.8036 25.3369C12.5662 25.2803 12.3281 25.2299 12.0884 25.1835C10.9389 24.9601 9.75748 24.7139 8.65351 24.3174C8.49467 24.2629 8.33445 24.2148 8.17355 24.1669C7.61886 23.9999 7.08909 23.7881 6.55881 23.5548C6.42705 23.4972 6.29462 23.4416 6.16196 23.3862C4.17892 22.5358 2.47571 21.1222 1.39969 19.2466C1.33282 19.1304 1.26468 19.015 1.19642 18.8996C0.883097 18.3621 0.647898 17.8162 0.450175 17.2268C0.432572 17.1745 0.41497 17.1221 0.396834 17.0681C0.358025 16.9461 0.322387 16.824 0.289115 16.7004C0.277273 16.6564 0.265431 16.6125 0.25323 16.5672C-0.121634 15.1037 -0.0560282 13.6552 0.29083 12.1993C0.305659 12.1283 0.305659 12.1283 0.320788 12.0559C0.664483 10.5358 1.72166 9.19248 2.88489 8.20754C2.92439 8.17349 2.96389 8.13944 3.00459 8.10436C3.81356 7.46215 4.85815 6.92714 5.8604 6.68653ZM1.86239 13.1749C1.4497 15.2959 2.17555 17.2849 3.32811 19.0439C3.55574 19.3616 3.81023 19.6457 4.09247 19.9153C4.12377 19.9452 4.15506 19.9752 4.1873 20.0061C5.17818 20.9359 6.3771 21.5708 7.62595 22.0759C7.72493 22.116 7.72493 22.116 7.82591 22.1571C8.28245 22.3363 8.74745 22.4822 9.21589 22.6257C9.33515 22.6628 9.45389 22.7013 9.57255 22.7403C9.92335 22.8553 10.2682 22.9598 10.6321 23.0243C10.8871 23.078 11.1369 23.1489 11.3881 23.2183C11.731 23.3127 12.0715 23.4042 12.4215 23.4683C12.5926 23.4998 12.7623 23.5368 12.9323 23.5738C13.2025 23.6323 13.473 23.688 13.7442 23.7414C13.9153 23.7762 14.0856 23.8139 14.2561 23.8515C14.5824 23.9223 14.9096 23.9777 15.2392 24.0305C15.4927 24.0741 15.7429 24.1298 15.994 24.1854C16.1885 24.226 16.3831 24.2591 16.5793 24.2905C16.9005 24.3421 17.2167 24.4072 17.5343 24.4775C17.7288 24.5181 17.9234 24.5512 18.1196 24.5827C18.4409 24.6342 18.7572 24.6994 19.0749 24.7698C19.2677 24.8099 19.4606 24.8426 19.655 24.8735C19.9321 24.9178 20.2047 24.9717 20.4784 25.034C20.8582 25.1184 20.8582 25.1184 21.2399 25.1932C21.3145 25.2075 21.3145 25.2075 21.3907 25.2221C21.5272 25.2246 21.5272 25.2246 21.6234 25.1187C21.7262 24.9409 21.7845 24.7603 21.8399 24.5638C21.945 24.2091 22.066 23.8647 22.1987 23.5193C22.2658 23.3389 22.3256 23.1577 22.3835 22.9741C22.4828 22.6596 22.5969 22.3527 22.7144 22.0447C22.7817 21.8625 22.8422 21.6794 22.9007 21.4941C23 21.1796 23.114 20.8727 23.2316 20.5647C23.3207 20.3232 23.3976 20.0785 23.475 19.8329C23.5361 19.6475 23.6039 19.466 23.6739 19.2838C23.8077 18.9332 23.9204 18.5785 24.0304 18.2198C24.1328 17.8879 24.2451 17.56 24.3621 17.233C24.6777 16.3481 24.9482 15.451 25.179 14.5398C25.2191 14.3955 25.2619 14.2609 25.3145 14.1214C25.3742 13.9569 25.4152 13.8103 25.444 13.6387C25.4812 13.4328 25.5272 13.2339 25.584 13.0327C25.6645 12.7363 25.7166 12.4398 25.7621 12.1359C25.7855 11.9795 25.8105 11.8241 25.8375 11.6683C26.0121 10.6338 26.047 9.59273 25.9419 8.54756C25.9364 8.49042 25.9364 8.49042 25.9308 8.43212C25.8671 7.80829 25.7041 7.22972 25.4939 6.64028C25.4673 6.56419 25.4673 6.56419 25.4401 6.48657C24.7239 4.68956 23.331 3.16809 21.5856 2.34559C20.2179 1.77466 18.8803 1.62174 17.4412 1.96937C17.3762 1.98456 17.3113 1.99975 17.2443 2.01539C15.7894 2.43148 14.5664 3.41983 13.822 4.72425C13.586 5.15687 13.4136 5.60194 13.2814 6.07753C13.2626 6.14526 13.2438 6.21298 13.2244 6.28276C13.2093 6.34292 13.1942 6.40309 13.1786 6.46508C13.1674 6.50331 13.1562 6.54154 13.1447 6.58093C13.0478 6.91878 13.0024 7.24415 12.9775 7.59445C12.8823 8.82427 12.8823 8.82427 12.6547 9.06475C12.3319 9.3091 12.0792 9.43608 11.6712 9.40774C11.4404 9.36859 11.2502 9.27104 11.045 9.16141C10.9582 9.11746 10.8713 9.07368 10.7844 9.03007C10.7426 9.00891 10.7008 8.98776 10.6577 8.96596C10.4001 8.83937 10.1324 8.74017 9.86318 8.64178C9.81696 8.6237 9.77075 8.60563 9.72313 8.58701C9.32351 8.43745 8.91929 8.37258 8.49826 8.31402C8.43758 8.3043 8.3769 8.29458 8.31438 8.28456C5.16941 7.84436 2.54882 10.2532 1.86239 13.1749Z" fill="#FFF5F5"/>
</svg>
