<svg width="28" height="26" viewBox="0 0 28 26" fill="none" xmlns="http://www.w3.org/2000/svg">
<path d="M18.7652 0.0314981C19.025 0.169063 19.2443 0.355911 19.4691 0.543435C19.5542 0.61306 19.6393 0.682632 19.7244 0.752159C19.9115 0.905532 20.0979 1.05973 20.284 1.21435C20.5227 1.41197 20.7645 1.60488 21.0089 1.79528C21.3308 2.04607 21.6487 2.30116 21.9648 2.55918C22.289 2.82375 22.6151 3.08538 22.9447 3.34309C23.0527 3.42785 23.1607 3.51266 23.2687 3.59749C23.3379 3.6518 23.4072 3.706 23.4766 3.7601C23.5743 3.83655 23.6715 3.91376 23.7686 3.99101C23.8236 4.0344 23.8786 4.07779 23.9353 4.12249C24.1396 4.31414 24.2551 4.48469 24.2965 4.76291C24.2295 5.2323 23.8586 5.49259 23.5086 5.77079C23.4602 5.80992 23.4119 5.84906 23.362 5.88938C23.0318 6.15572 22.6987 6.41849 22.3642 6.67934C22.0787 6.90212 21.7974 7.12962 21.5169 7.35859C21.1639 7.64669 20.8081 7.93072 20.4488 8.21086C20.2429 8.37181 20.0391 8.5349 19.8369 8.70042C19.7909 8.738 19.745 8.77557 19.6977 8.81428C19.6089 8.88717 19.5203 8.96023 19.4318 9.03351C19.0706 9.32999 18.8094 9.54083 18.3273 9.52557C18.1212 9.49085 18.0102 9.39597 17.8694 9.24635C17.7934 9.09444 17.7976 9.00303 17.7981 8.83362C17.7981 8.7747 17.7981 8.71578 17.7981 8.65507C17.7984 8.59134 17.7988 8.52761 17.7991 8.46195C17.7993 8.36422 17.7992 8.36422 17.7994 8.26451C17.7997 8.05585 17.8006 7.84721 17.8014 7.63855C17.8017 7.49732 17.802 7.35609 17.8022 7.21486C17.8029 6.86815 17.804 6.52144 17.8054 6.17474C16.4892 6.17712 15.173 6.18096 13.8569 6.1865C13.2456 6.18904 12.6344 6.19112 12.0232 6.19208C11.49 6.19291 10.9568 6.19465 10.4236 6.19743C10.1417 6.19887 9.85979 6.19988 9.57788 6.19981C9.31162 6.19976 9.0454 6.20093 8.77915 6.20297C8.6823 6.2035 8.58545 6.20363 8.4886 6.20326C7.60614 6.2004 6.71706 6.32649 5.91891 6.72667C5.8744 6.74842 5.82989 6.77017 5.78404 6.79258C4.46196 7.46476 3.5616 8.62184 3.08728 10.0143C2.70723 11.2387 2.82836 12.5372 3.29525 13.7178C3.46148 14.1525 3.49765 14.5921 3.30725 15.0256C3.09424 15.3935 2.78508 15.6402 2.38337 15.7735C1.87241 15.8481 1.46108 15.751 1.03955 15.4536C0.151292 14.5451 -0.00288506 12.7228 4.0403e-05 11.5135C0.0348257 9.25519 0.940637 7.25803 2.51135 5.6628C2.56357 5.60902 2.61579 5.55523 2.66958 5.49982C3.4756 4.71747 4.46733 4.18063 5.51896 3.80703C5.62067 3.76892 5.62067 3.76892 5.72444 3.73004C7.05689 3.27104 8.48374 3.33254 9.87258 3.33962C10.1524 3.34084 10.4321 3.34093 10.7119 3.34116C11.2395 3.34175 11.767 3.34332 12.2946 3.34526C12.8961 3.34742 13.4977 3.34846 14.0993 3.34942C15.3346 3.35142 16.57 3.35479 17.8054 3.35908C17.8048 3.32292 17.8042 3.28675 17.8036 3.24949C17.798 2.87267 17.7941 2.49586 17.7913 2.119C17.79 1.97841 17.7883 1.83782 17.7861 1.69724C17.7829 1.49503 17.7815 1.29285 17.7804 1.09062C17.779 1.02788 17.7777 0.965143 17.7764 0.900504C17.7763 0.619727 17.7775 0.460915 17.9269 0.217272C18.1789 -0.0110599 18.4378 -0.033014 18.7652 0.0314981Z" fill="#FEFEFE"/>
<path d="M26.0844 10.2742C26.6972 10.626 26.8913 11.2891 27.0842 11.9339C27.664 14.1549 27.4678 16.4538 26.3226 18.4712C25.1891 20.3736 23.3669 21.7495 21.2327 22.3233C20.0271 22.6281 18.7808 22.5824 17.5473 22.5761C17.2675 22.5749 16.9877 22.5748 16.708 22.5745C16.1804 22.574 15.6528 22.5724 15.1253 22.5705C14.5237 22.5683 13.9222 22.5672 13.3206 22.5663C12.0852 22.5643 10.8499 22.5609 9.61451 22.5566C9.61508 22.5928 9.61564 22.629 9.61623 22.6662C9.6219 23.043 9.62576 23.4199 9.62857 23.7967C9.62986 23.9373 9.6316 24.0779 9.63382 24.2185C9.63693 24.4207 9.63838 24.6229 9.6395 24.8251C9.64083 24.8878 9.64215 24.9506 9.64351 25.0152C9.6436 25.296 9.64239 25.4548 9.49296 25.6984C9.28169 25.8898 9.10811 25.9229 8.82086 25.917C8.47098 25.848 8.21798 25.5952 7.95072 25.3723C7.86569 25.3026 7.78062 25.2331 7.69551 25.1635C7.50837 25.0102 7.32194 24.856 7.13583 24.7014C6.89719 24.5037 6.65534 24.3108 6.41092 24.1204C6.08908 23.8696 5.77113 23.6145 5.45505 23.3565C5.1309 23.092 4.8048 22.8303 4.47518 22.5726C4.36714 22.4879 4.25914 22.4031 4.15116 22.3182C4.08195 22.2639 4.01267 22.2097 3.94331 22.1556C3.84556 22.0792 3.74841 22.0019 3.65128 21.9247C3.56875 21.8596 3.56875 21.8596 3.48456 21.7932C3.28025 21.6016 3.16479 21.431 3.12335 21.1528C3.19041 20.6834 3.56131 20.4231 3.91125 20.1449C3.95962 20.1058 4.008 20.0667 4.05784 20.0263C4.38805 19.76 4.72114 19.4972 5.05569 19.2364C5.34115 19.0136 5.62249 18.7861 5.90299 18.5571C6.256 18.269 6.61173 17.985 6.97109 17.7049C7.17695 17.5439 7.3808 17.3808 7.58302 17.2153C7.62893 17.1777 7.67483 17.1401 7.72213 17.1014C7.81094 17.0285 7.8996 16.9555 7.98809 16.8822C8.34924 16.5857 8.6105 16.3749 9.09258 16.3901C9.29865 16.4249 9.4097 16.5197 9.55052 16.6694C9.62647 16.8213 9.62224 16.9127 9.62177 17.0821C9.62177 17.1705 9.62177 17.1705 9.62176 17.2606C9.62143 17.3244 9.6211 17.3881 9.62076 17.4538C9.62067 17.5189 9.62058 17.5841 9.62048 17.6512C9.62012 17.8599 9.61932 18.0685 9.61851 18.2772C9.61819 18.4184 9.61789 18.5596 9.61763 18.7009C9.61693 19.0476 9.61585 19.3943 9.61451 19.741C10.9307 19.7386 12.2468 19.7347 13.563 19.7292C14.1742 19.7267 14.7855 19.7246 15.3967 19.7236C15.9299 19.7228 16.4631 19.7211 16.9963 19.7183C17.2782 19.7168 17.5601 19.7158 17.842 19.7159C18.1083 19.7159 18.3745 19.7148 18.6407 19.7127C18.7376 19.7122 18.8344 19.7121 18.9313 19.7124C19.8137 19.7153 20.7028 19.5892 21.501 19.189C21.5455 19.1673 21.59 19.1455 21.6358 19.1231C22.9579 18.4509 23.8583 17.2939 24.3326 15.9015C24.7126 14.677 24.5915 13.3785 24.1246 12.1979C23.9584 11.7632 23.9222 11.3236 24.1126 10.8901C24.531 10.1676 25.3278 9.93037 26.0844 10.2742Z" fill="#FEFEFE"/>
</svg>
