<svg width="12" height="22" viewBox="0 0 12 22" fill="none" xmlns="http://www.w3.org/2000/svg">
<path d="M10.2085 0.540327C10.8902 1.02308 11.327 1.69282 11.4787 2.47523C11.5559 3.42215 11.3635 4.20431 10.6876 4.94405C10.3988 5.2499 10.0635 5.50926 9.73341 5.77583C7.61345 7.33724 7.61345 7.33724 6.56858 9.51084C6.54582 10.0573 6.63277 10.6121 6.78767 11.1382C6.82597 11.1262 6.86427 11.1143 6.90372 11.1019C6.97906 11.0785 6.97906 11.0785 7.05591 11.0547C7.10571 11.0391 7.1555 11.0236 7.2068 11.0077C8.1293 10.7341 9.1358 10.8844 9.99241 11.2669C10.3611 11.45 10.67 11.6826 10.9678 11.953C11.0003 11.9825 11.0328 12.012 11.0663 12.0423C11.7824 12.7371 12.0117 13.6171 11.9995 14.5513C11.9844 15.0466 11.8517 15.4958 11.618 15.9414C11.5975 15.9811 11.5769 16.0207 11.5558 16.0616C11.1277 16.8356 10.4019 17.4142 9.51511 17.705C8.91507 17.8838 8.34624 17.8871 7.72239 17.8794C7.63137 17.8787 7.54036 17.8781 7.44934 17.8776C7.22877 17.8762 7.00823 17.874 6.78767 17.8713C6.78814 17.912 6.78814 17.912 6.78861 17.9536C6.79172 18.2389 6.79381 18.5241 6.79533 18.8094C6.79602 18.9156 6.79697 19.0217 6.79818 19.1279C6.81683 20.8006 6.81683 20.8006 6.17572 21.4469C5.58872 21.9298 4.96102 22.0219 4.20657 21.9961C3.67746 21.96 3.2221 21.6873 2.86575 21.3377C2.51128 20.9538 2.32118 20.4354 2.32891 19.9298C2.37159 19.6894 2.45429 19.5726 2.65402 19.4152C2.86156 19.2875 3.06094 19.3086 3.30426 19.3294C3.43779 19.3777 3.43779 19.3777 3.53649 19.4581C3.57672 19.4908 3.61696 19.5236 3.65841 19.5573C3.81329 19.7332 3.82818 19.9545 3.86306 20.1726C3.93399 20.3984 4.07783 20.4976 4.29413 20.6107C4.56052 20.6857 4.73876 20.6596 4.98791 20.549C5.18082 20.3911 5.28285 20.2225 5.31933 19.9846C5.32725 19.8495 5.32956 19.7153 5.32972 19.5801C5.33049 19.531 5.33126 19.482 5.33205 19.4315C5.33429 19.276 5.33529 19.1205 5.33625 18.9649C5.33756 18.859 5.33895 18.7532 5.34042 18.6473C5.34385 18.3886 5.34625 18.13 5.34786 17.8713C5.29009 17.8722 5.23232 17.8731 5.1728 17.874C4.95457 17.8772 4.73636 17.8791 4.51811 17.8807C4.42439 17.8816 4.33066 17.8828 4.23695 17.8843C3.50524 17.8957 2.78337 17.8724 2.12571 17.5389C2.09541 17.5242 2.06512 17.5095 2.0339 17.4944C1.14866 17.0535 0.491767 16.3703 0.178806 15.4784C-0.124341 14.5204 -0.04178 13.5847 0.42464 12.6821C0.787242 12.0769 1.30597 11.6307 1.89608 11.2192C2.40138 10.8662 2.88564 10.492 3.35942 10.1036C3.394 10.0753 3.394 10.0753 3.42928 10.0464C4.62862 9.06059 5.45593 8.11612 5.55952 6.59358C5.62686 5.46234 5.55506 4.31303 5.42051 3.18774C5.31657 2.30391 5.40495 1.6762 6.001 0.94741C7.03239 -0.171112 8.94271 -0.289346 10.2085 0.540327ZM7.05818 1.88052C6.7247 2.36449 6.76336 2.86918 6.76953 3.4219C6.76988 3.51353 6.77014 3.60516 6.77033 3.69679C6.77103 3.93658 6.77285 4.17635 6.77492 4.41613C6.77682 4.66136 6.77767 4.9066 6.7786 5.15183C6.78059 5.63199 6.78375 6.11214 6.78767 6.59229C6.99378 6.43231 7.19252 6.26819 7.38404 6.09346C7.40901 6.07083 7.43397 6.04819 7.4597 6.02487C7.54118 5.95091 7.62247 5.87677 7.7037 5.80258C7.74577 5.76415 7.74577 5.76415 7.7887 5.72495C7.93704 5.58936 8.08521 5.45361 8.23325 5.31774C8.35491 5.20618 8.47694 5.09499 8.59933 4.98412C8.7482 4.84926 8.89635 4.71376 9.04405 4.5778C9.09997 4.52653 9.15612 4.47548 9.21253 4.42467C9.66993 4.01208 10.0463 3.59007 10.0563 2.9711C10.0577 2.47095 9.87508 2.11074 9.49603 1.75152C9.16862 1.47372 8.78945 1.3312 8.34051 1.31228C7.80159 1.33624 7.4221 1.51842 7.05818 1.88052ZM4.98933 10.1751C4.9567 10.2049 4.92407 10.2348 4.89045 10.2655C4.78183 10.365 4.6734 10.4646 4.565 10.5643C4.52799 10.5983 4.49097 10.6323 4.45283 10.6673C4.25663 10.8476 4.06057 11.028 3.86463 11.2085C3.66269 11.3945 3.4602 11.58 3.25758 11.7654C3.10159 11.9083 2.94602 12.0516 2.79056 12.195C2.71615 12.2635 2.64158 12.3319 2.56685 12.4001C2.4618 12.496 2.35736 12.5925 2.25303 12.6891C2.22241 12.7169 2.19178 12.7446 2.16022 12.7732C1.69682 13.2058 1.44376 13.7298 1.43483 14.3386C1.44134 14.9155 1.66335 15.4833 2.09831 15.9069C2.61378 16.3441 3.19134 16.5498 3.88283 16.546C3.93863 16.546 3.93863 16.546 3.99556 16.5459C4.13379 16.5457 4.27202 16.5451 4.41024 16.5445C4.71966 16.5436 5.02907 16.5428 5.34786 16.5418C5.34786 15.7069 5.34786 14.8719 5.34786 14.0116C5.07785 14.2245 5.07785 14.2245 4.82644 14.4505C4.79291 14.4822 4.75938 14.5138 4.72484 14.5465C4.65584 14.6121 4.58702 14.6779 4.51837 14.7438C4.48497 14.7753 4.45156 14.8067 4.41714 14.8391C4.38735 14.8676 4.35755 14.8961 4.32686 14.9254C4.14516 15.0661 3.96115 15.1035 3.72499 15.0973C3.5129 15.0672 3.36066 14.9676 3.21427 14.8237C3.13771 14.6283 3.12588 14.4307 3.16492 14.226C3.29248 14.0047 3.46646 13.8717 3.67622 13.7153C4.85697 12.865 4.85697 12.865 5.46605 11.6633C5.51774 11.0725 5.45629 10.4774 5.34786 9.89451C5.23065 9.89451 5.07432 10.0969 4.98933 10.1751ZM6.78767 12.6821C6.76552 12.8147 6.75819 12.9235 6.76131 13.0559C6.76127 13.0936 6.76124 13.1312 6.76121 13.17C6.76137 13.2944 6.76317 13.4188 6.76499 13.5432C6.76543 13.6295 6.76576 13.7158 6.76599 13.802C6.76688 14.0291 6.76916 14.2561 6.77173 14.4831C6.7741 14.7148 6.77516 14.9465 6.77633 15.1782C6.77882 15.6328 6.78279 16.0873 6.78767 16.5418C7.03458 16.5461 7.28146 16.5492 7.52841 16.5513C7.61214 16.5521 7.69587 16.5533 7.77959 16.5548C8.59539 16.569 9.27024 16.4697 9.88791 15.9307C10.363 15.4657 10.5816 14.9021 10.5716 14.2647C10.5427 13.679 10.2759 13.1797 9.82114 12.7759C9.03048 12.1594 7.58715 11.9147 6.78767 12.6821Z" fill="#FEFEFE"/>
</svg>
