<svg width="47" height="94" viewBox="0 0 47 94" fill="none" xmlns="http://www.w3.org/2000/svg">
<path d="M39.9833 2.30867C42.6533 4.37134 44.3639 7.23294 44.9581 10.576C45.2608 14.6219 44.5072 17.9639 41.8597 21.1246C40.7287 22.4314 39.4154 23.5395 38.1225 24.6786C29.8194 31.35 29.8193 31.35 25.7269 40.6372C25.6378 42.972 25.9784 45.3427 26.5851 47.5905C26.735 47.5394 26.885 47.4882 27.0396 47.4355C27.3346 47.3355 27.3346 47.3355 27.6357 47.2335C27.8307 47.1673 28.0257 47.101 28.2266 47.0327C31.8398 45.8637 35.7819 46.5062 39.1369 48.1402C40.581 48.9229 41.7907 49.9168 42.9571 51.0721C43.0844 51.198 43.2118 51.3239 43.3429 51.4536C46.1479 54.4222 47.0457 58.182 46.9982 62.1739C46.9391 64.2901 46.4191 66.2092 45.5038 68.1134C45.4234 68.2828 45.343 68.4522 45.2601 68.6267C43.5836 71.934 40.7408 74.4062 37.2675 75.6484C34.9174 76.4126 32.6894 76.4269 30.246 76.3936C29.8895 76.3909 29.5331 76.3884 29.1766 76.3861C28.3127 76.3801 27.4489 76.3707 26.5851 76.3593C26.5869 76.5332 26.5869 76.5332 26.5887 76.7107C26.6009 77.9297 26.6091 79.1486 26.615 80.3676C26.6178 80.8212 26.6215 81.2747 26.6262 81.7282C26.6992 88.8752 26.6992 88.8752 24.1882 91.6369C21.8891 93.6999 19.4307 94.0935 16.4757 93.9832C14.4034 93.8291 12.6199 92.6638 11.2242 91.1702C9.83586 89.5299 9.09129 87.3148 9.12155 85.1548C9.28871 84.1276 9.61265 83.6286 10.3949 82.9559C11.2078 82.41 11.9887 82.5005 12.9417 82.5894C13.4647 82.7956 13.4647 82.7956 13.8512 83.1392C14.0088 83.279 14.1664 83.4188 14.3288 83.5629C14.9354 84.3144 14.9937 85.2601 15.1303 86.192C15.4081 87.1567 15.9715 87.5807 16.8187 88.0637C17.8621 88.3844 18.5602 88.2729 19.536 87.8003C20.2915 87.1257 20.6912 86.4052 20.834 85.3886C20.8651 84.8115 20.8741 84.2382 20.8747 83.6602C20.8777 83.4508 20.8808 83.2414 20.8839 83.0256C20.8926 82.361 20.8966 81.6965 20.9003 81.0319C20.9054 80.5795 20.9109 80.1271 20.9167 79.6748C20.9301 78.5696 20.9395 77.4645 20.9458 76.3593C20.7195 76.3631 20.4932 76.3669 20.2601 76.3709C19.4054 76.3843 18.5507 76.3926 17.6959 76.3995C17.3289 76.4032 16.9618 76.4081 16.5947 76.4146C13.7289 76.4633 10.9015 76.3639 8.32568 74.9391C8.20703 74.8763 8.08838 74.8135 7.96612 74.7487C4.4989 72.865 1.92609 69.9459 0.700323 66.135C-0.487002 62.0419 -0.163638 58.0435 1.66317 54.1872C3.08336 51.6013 5.11505 49.6947 7.42631 47.9366C9.4054 46.4284 11.3021 44.8294 13.1577 43.1698C13.2932 43.0489 13.2932 43.0489 13.4314 42.9255C18.1287 38.7134 21.3691 34.678 21.7748 28.1726C22.0385 23.3391 21.7573 18.4284 21.2303 13.6203C20.8232 9.84398 21.1694 7.16196 23.5039 4.04802C27.5435 -0.731115 35.0256 -1.23629 39.9833 2.30867ZM27.6445 8.03493C26.3384 10.1028 26.4898 12.2592 26.514 14.6209C26.5154 15.0124 26.5164 15.4039 26.5171 15.7954C26.5199 16.8199 26.527 17.8444 26.5351 18.8689C26.5426 19.9167 26.5459 20.9646 26.5495 22.0124C26.5573 24.064 26.5697 26.1155 26.5851 28.167C27.3923 27.4835 28.1707 26.7823 28.9208 26.0357C29.0186 25.939 29.1164 25.8423 29.2172 25.7426C29.5363 25.4266 29.8547 25.1098 30.1728 24.7928C30.3376 24.6287 30.3376 24.6287 30.5057 24.4612C31.0868 23.8818 31.6671 23.3018 32.2469 22.7213C32.7234 22.2446 33.2013 21.7695 33.6807 21.2958C34.2638 20.7196 34.8441 20.1406 35.4225 19.5597C35.6415 19.3406 35.8615 19.1225 36.0824 18.9054C37.8739 17.1425 39.3482 15.3394 39.3871 12.6947C39.3926 10.5577 38.6774 9.0186 37.1928 7.48378C35.9104 6.29682 34.4254 5.68787 32.667 5.607C30.5562 5.70938 29.0699 6.48781 27.6445 8.03493ZM19.5415 43.4754C19.4137 43.6029 19.2859 43.7304 19.1543 43.8618C18.7288 44.2868 18.3041 44.7124 17.8796 45.1382C17.7346 45.2835 17.5896 45.4288 17.4403 45.5785C16.6718 46.3488 15.9039 47.1197 15.1365 47.891C14.3455 48.6857 13.5525 49.4783 12.7589 50.2703C12.1479 50.881 11.5386 51.4932 10.9297 52.1059C10.6382 52.3986 10.3462 52.6907 10.0535 52.9821C9.64205 53.392 9.23299 53.8043 8.82439 54.2171C8.70442 54.3356 8.58446 54.4541 8.46086 54.5762C6.64588 56.4249 5.65473 58.6635 5.61975 61.2648C5.64524 63.7297 6.51477 66.1561 8.21838 67.966C10.2373 69.8339 12.4994 70.7129 15.2078 70.6967C15.4263 70.6964 15.4263 70.6964 15.6493 70.6961C16.1907 70.6952 16.7321 70.6926 17.2735 70.6903C18.4853 70.6865 19.6972 70.6827 20.9458 70.6788C20.9458 67.1111 20.9458 63.5434 20.9458 59.8676C19.8883 60.7775 19.8883 60.7775 18.9036 61.743C18.7722 61.8783 18.6409 62.0137 18.5056 62.1531C18.2354 62.4335 17.9658 62.7146 17.697 62.9963C17.5661 63.1307 17.4353 63.2651 17.3005 63.4036C17.1838 63.5252 17.0671 63.6468 16.9469 63.772C16.2352 64.3735 15.5145 64.533 14.5896 64.5066C13.7589 64.378 13.1626 63.9525 12.5892 63.3377C12.2893 62.5026 12.243 61.6583 12.396 60.7838C12.8955 59.8383 13.577 59.2699 14.3985 58.6019C19.0231 54.9685 19.0231 54.9685 21.4087 49.834C21.6111 47.3098 21.3705 44.7672 20.9458 42.2765C20.4867 42.2765 19.8744 43.1414 19.5415 43.4754ZM26.5851 54.1872C26.4983 54.7538 26.4696 55.2184 26.4818 55.7843C26.4817 55.9452 26.4815 56.1062 26.4814 56.272C26.482 56.8036 26.4891 57.3348 26.4962 57.8663C26.4979 58.235 26.4992 58.6037 26.5001 58.9724C26.5036 59.9425 26.5125 60.9124 26.5226 61.8824C26.5319 62.8724 26.5361 63.8623 26.5406 64.8523C26.5504 66.7945 26.5659 68.7367 26.5851 70.6788C27.5521 70.6971 28.5191 70.7103 29.4863 70.7191C29.8142 70.7227 30.1422 70.7277 30.4701 70.7341C33.6653 70.7949 36.3085 70.3705 38.7276 68.0676C40.5884 66.0809 41.4447 63.6725 41.4055 60.9493C41.2924 58.4464 40.2474 56.3132 38.4661 54.588C35.3694 51.954 29.7163 50.9082 26.5851 54.1872Z" fill="black"/>
</svg>
