<svg width="9" height="8" viewBox="0 0 9 8" fill="none" xmlns="http://www.w3.org/2000/svg">
<path d="M0.524424 6.94317C0.538367 6.94312 0.55231 6.94308 0.566676 6.94303C0.613603 6.94289 0.66053 6.94293 0.707457 6.94296C0.74136 6.9429 0.775264 6.94283 0.809167 6.94275C0.902497 6.94255 0.995826 6.94251 1.08916 6.94249C1.18975 6.94245 1.29034 6.94227 1.39094 6.94211C1.61097 6.94179 1.831 6.94165 2.05104 6.94154C2.18839 6.94148 2.32575 6.94137 2.4631 6.94127C2.8433 6.94098 3.2235 6.94073 3.6037 6.94065C3.6402 6.94065 3.6402 6.94065 3.67745 6.94064C3.70185 6.94063 3.72624 6.94063 3.75138 6.94062C3.80082 6.94061 3.85026 6.9406 3.8997 6.94059C3.92422 6.94058 3.94874 6.94058 3.97401 6.94057C4.37145 6.94048 4.76888 6.94007 5.16632 6.93951C5.57424 6.93895 5.98215 6.93865 6.39006 6.93863C6.61914 6.93861 6.84822 6.93847 7.0773 6.93804C7.27236 6.93767 7.46741 6.93755 7.66247 6.93775C7.762 6.93784 7.86152 6.93782 7.96105 6.93748C8.05218 6.93718 8.14331 6.93721 8.23444 6.9375C8.26739 6.93754 8.30034 6.93747 8.33329 6.93726C8.52405 6.93614 8.67724 6.94014 8.84252 7.05906C8.94556 7.17555 8.99042 7.30017 9 7.46264C8.99792 7.60264 8.96284 7.71166 8.8832 7.81873C8.7444 7.95012 8.65717 7.99375 8.4784 7.99397C8.46446 7.99402 8.45051 7.99406 8.43615 7.99411C8.38922 7.99425 8.34229 7.99421 8.29536 7.99418C8.26146 7.99424 8.22756 7.99431 8.19366 7.99439C8.10033 7.99459 8.007 7.99463 7.91367 7.99465C7.81307 7.99469 7.71248 7.99487 7.61189 7.99503C7.39185 7.99535 7.17182 7.99549 6.95179 7.9956C6.81443 7.99566 6.67708 7.99577 6.53972 7.99587C6.15952 7.99616 5.77932 7.99641 5.39913 7.99649C5.36262 7.99649 5.36262 7.99649 5.32537 7.9965C5.30098 7.99651 5.27658 7.99651 5.25144 7.99652C5.202 7.99653 5.15256 7.99654 5.10312 7.99655C5.0786 7.99656 5.05408 7.99656 5.02881 7.99657C4.63137 7.99666 4.23394 7.99707 3.8365 7.99763C3.42859 7.99819 3.02067 7.99849 2.61276 7.99851C2.38368 7.99853 2.1546 7.99867 1.92552 7.9991C1.73046 7.99947 1.53541 7.99959 1.34035 7.99939C1.24082 7.9993 1.1413 7.99932 1.04177 7.99966C0.950638 7.99996 0.859513 7.99993 0.768382 7.99964C0.735431 7.9996 0.702479 7.99967 0.669529 7.99988C0.478775 8.001 0.325583 7.997 0.160298 7.87808C0.0572646 7.76159 0.0124011 7.63697 0.00282133 7.47451C0.00490327 7.3165 0.0559761 7.17701 0.155049 7.06499C0.278424 6.96852 0.376543 6.94335 0.524424 6.94317Z" fill="#FEFEFE"/>
<path d="M0.524424 3.90447C0.538367 3.90442 0.55231 3.90437 0.566676 3.90432C0.613603 3.90419 0.66053 3.90422 0.707457 3.90426C0.74136 3.9042 0.775264 3.90412 0.809167 3.90404C0.902497 3.90385 0.995826 3.90381 1.08916 3.90379C1.18975 3.90375 1.29034 3.90357 1.39094 3.90341C1.61097 3.90309 1.831 3.90294 2.05104 3.90284C2.18839 3.90277 2.32575 3.90267 2.4631 3.90257C2.8433 3.90228 3.2235 3.90203 3.6037 3.90195C3.6402 3.90194 3.6402 3.90194 3.67745 3.90194C3.70185 3.90193 3.72624 3.90193 3.75138 3.90192C3.80082 3.90191 3.85026 3.9019 3.8997 3.90189C3.92422 3.90188 3.94874 3.90188 3.97401 3.90187C4.37145 3.90178 4.76888 3.90136 5.16632 3.90081C5.57424 3.90025 5.98215 3.89995 6.39006 3.89993C6.61914 3.8999 6.84822 3.89977 7.0773 3.89934C7.27236 3.89897 7.46741 3.89885 7.66247 3.89905C7.762 3.89914 7.86152 3.89912 7.96105 3.89878C8.05218 3.89848 8.14331 3.89851 8.23444 3.8988C8.26739 3.89884 8.30034 3.89877 8.33329 3.89856C8.52405 3.89744 8.67724 3.90143 8.84252 4.02036C8.94556 4.13685 8.99042 4.26147 9 4.42393C8.99792 4.56394 8.96284 4.67296 8.8832 4.78003C8.7444 4.91142 8.65717 4.95505 8.4784 4.95527C8.46446 4.95531 8.45051 4.95536 8.43615 4.95541C8.38922 4.95555 8.34229 4.95551 8.29536 4.95548C8.26146 4.95554 8.22756 4.95561 8.19366 4.95569C8.10033 4.95588 8.007 4.95593 7.91367 4.95594C7.81307 4.95599 7.71248 4.95617 7.61189 4.95633C7.39185 4.95665 7.17182 4.95679 6.95179 4.9569C6.81443 4.95696 6.67708 4.95706 6.53972 4.95717C6.15952 4.95746 5.77932 4.9577 5.39913 4.95779C5.36262 4.95779 5.36262 4.95779 5.32537 4.9578C5.30098 4.95781 5.27658 4.95781 5.25144 4.95782C5.202 4.95783 5.15256 4.95784 5.10312 4.95785C5.0786 4.95785 5.05408 4.95786 5.02881 4.95786C4.63137 4.95796 4.23394 4.95837 3.8365 4.95893C3.42859 4.95949 3.02067 4.95978 2.61276 4.95981C2.38368 4.95983 2.1546 4.95997 1.92552 4.9604C1.73046 4.96077 1.53541 4.96089 1.34035 4.96069C1.24082 4.9606 1.1413 4.96062 1.04177 4.96096C0.950638 4.96126 0.859513 4.96123 0.768382 4.96094C0.735431 4.96089 0.702479 4.96097 0.669529 4.96117C0.478775 4.96229 0.325583 4.9583 0.160298 4.83938C0.0572646 4.72289 0.0124011 4.59827 0.00282133 4.4358C0.00490327 4.2778 0.0559761 4.13831 0.155049 4.02629C0.278424 3.92982 0.376543 3.90465 0.524424 3.90447Z" fill="#FEFEFE"/>
<path d="M3.72228 0.862701C3.75351 0.862565 3.75351 0.862565 3.78538 0.862426C3.85511 0.862181 3.92483 0.862276 3.99456 0.86237C4.04458 0.862267 4.09459 0.862144 4.1446 0.862002C4.26633 0.861717 4.38805 0.861657 4.50977 0.861713C4.60874 0.861755 4.7077 0.861713 4.80666 0.861612C4.82076 0.861598 4.83485 0.861584 4.84938 0.86157C4.87801 0.861541 4.90665 0.861512 4.93528 0.861483C5.20374 0.861225 5.47219 0.861276 5.74064 0.861421C5.98607 0.861544 6.2315 0.861277 6.47693 0.860825C6.72911 0.860365 6.98128 0.860169 7.23345 0.860258C7.37496 0.860304 7.51647 0.860245 7.65798 0.859909C7.79106 0.859611 7.92414 0.859656 8.05722 0.859966C8.10605 0.860022 8.15487 0.859957 8.20369 0.859761C8.27038 0.859513 8.33706 0.859705 8.40375 0.860006C8.42303 0.859831 8.44231 0.859656 8.46217 0.859476C8.62611 0.861031 8.76978 0.899408 8.88977 1.03507C8.9788 1.18063 9.01033 1.30966 8.99475 1.48613C8.95977 1.65521 8.88574 1.74577 8.76247 1.84816C8.68216 1.90225 8.61987 1.91637 8.52732 1.91663C8.50949 1.91674 8.49167 1.91684 8.4733 1.91695C8.45383 1.91695 8.43435 1.91694 8.41428 1.91694C8.38312 1.91707 8.38312 1.91707 8.35133 1.9172C8.28152 1.91746 8.21171 1.91756 8.1419 1.91765C8.09193 1.91779 8.04195 1.91795 7.99198 1.91812C7.84188 1.91858 7.69178 1.91883 7.54168 1.91904C7.47096 1.91914 7.40023 1.91927 7.3295 1.91939C7.09432 1.9198 6.85913 1.92014 6.62395 1.92031C6.56294 1.92036 6.50194 1.9204 6.44093 1.92045C6.41819 1.92047 6.41819 1.92047 6.39499 1.92049C6.14943 1.92068 5.90388 1.92128 5.65832 1.92206C5.40608 1.92284 5.15384 1.92327 4.90159 1.92334C4.76002 1.9234 4.61845 1.9236 4.47688 1.92421C4.34368 1.92476 4.21048 1.92486 4.07728 1.92462C4.02843 1.92461 3.97959 1.92476 3.93074 1.92508C3.86396 1.9255 3.7972 1.92534 3.73042 1.92502C3.71117 1.92528 3.69193 1.92554 3.6721 1.92581C3.52752 1.92418 3.39403 1.89144 3.28595 1.77624C3.16631 1.62607 3.14687 1.50984 3.14965 1.3078C3.16414 1.15697 3.22773 1.06676 3.32427 0.966817C3.45306 0.865781 3.57086 0.862 3.72228 0.862701Z" fill="#FEFEFE"/>
<path d="M0.994926 0.235333C1.03923 0.264996 1.08355 0.294639 1.12788 0.324265C1.15074 0.339592 1.1736 0.35492 1.19715 0.370713C1.29248 0.434216 1.3884 0.496516 1.48436 0.558771C1.83283 0.78486 1.83283 0.78486 1.97784 0.883728C1.99703 0.896764 2.01622 0.909801 2.036 0.923232C2.1412 1.0074 2.22312 1.10698 2.26918 1.24428C2.28923 1.40303 2.2798 1.53393 2.21275 1.67605C2.07908 1.86273 1.86389 1.97527 1.68203 2.0913C1.61722 2.13265 1.55255 2.17426 1.48786 2.21585C1.46819 2.22848 1.46819 2.22848 1.44813 2.24137C1.29563 2.33946 1.14422 2.43964 0.992911 2.54005C0.93767 2.57665 0.882352 2.61309 0.82695 2.64938C0.800657 2.66662 0.800657 2.66662 0.773833 2.68421C0.757231 2.6949 0.740629 2.7056 0.723524 2.71661C0.709008 2.726 0.694492 2.73539 0.679536 2.74506C0.558429 2.81213 0.424412 2.81142 0.29809 2.76363C0.170827 2.70337 0.0982926 2.59084 0.0290675 2.45946C0.000507133 2.36826 0.00481495 2.27358 0.00468727 2.17804C0.00458302 2.15934 0.00447877 2.14065 0.00437137 2.12138C0.00406505 2.05961 0.00392164 1.99784 0.00380556 1.93607C0.00368473 1.89302 0.00356384 1.84996 0.00344288 1.80691C0.00322239 1.71663 0.0030996 1.62635 0.00302638 1.53606C0.00291136 1.42069 0.00240707 1.30532 0.00180915 1.18995C0.001417 1.10099 0.00130869 1.01203 0.00127658 0.923069C0.00121325 0.880554 0.00104538 0.838039 0.00076877 0.795526C0.0004084 0.735874 0.000450554 0.676238 0.000586309 0.616585C0.000392827 0.599214 0.000199345 0.581843 0 0.563946C0.0010812 0.411352 0.0308441 0.281988 0.119617 0.16263C0.430598 -0.131738 0.682528 0.0233905 0.994926 0.235333Z" fill="#FEFEFE"/>
</svg>
