<svg width="28" height="22" viewBox="0 0 28 22" fill="none" xmlns="http://www.w3.org/2000/svg">
<path d="M23.911 0.197884C24.2097 0.468678 24.498 0.747746 24.7814 1.03447C24.827 1.08031 24.8726 1.12615 24.9196 1.17338C25.1125 1.36732 25.3051 1.56162 25.4977 1.75589C25.6394 1.89863 25.7812 2.04118 25.923 2.18372C25.9657 2.22694 26.0084 2.27016 26.0524 2.31469C26.2957 2.55912 26.5452 2.79175 26.8072 3.01595C26.9302 3.12349 27.0401 3.23789 27.1467 3.36161C27.1806 3.40027 27.2144 3.43894 27.2493 3.47878C27.4488 3.74024 27.4964 3.9544 27.4848 4.2806C27.4067 4.80909 26.8883 5.22984 26.5267 5.58613C26.4728 5.63993 26.4189 5.69373 26.3634 5.74917C26.2211 5.89094 26.0784 6.0323 25.9355 6.17347C25.7912 6.31629 25.6477 6.45979 25.504 6.60318C25.3931 6.71346 25.2822 6.82371 25.1713 6.93392C25.1202 6.98477 25.0691 7.03563 25.0164 7.08803C24.7201 7.38082 24.4172 7.66195 24.0999 7.93188C24.0646 7.96208 24.0293 7.99228 23.993 8.0234C23.6823 8.28657 23.5106 8.31981 23.1079 8.31559C22.7947 8.2837 22.6346 8.12274 22.4313 7.89751C22.2554 7.64332 22.2227 7.37898 22.2672 7.07662C22.5883 6.32856 23.3459 5.74618 23.9166 5.18284C21.2193 5.22301 19.2729 6.09779 17.364 8.00084C17.1977 8.17517 17.04 8.35481 16.8821 8.5367C16.6932 8.75113 16.4962 8.95783 16.2995 9.16512C16.0038 9.47796 15.7089 9.79138 15.4175 10.1082C15.1565 10.3919 14.8942 10.6742 14.631 10.9558C14.3653 11.24 14.1004 11.5249 13.8368 11.8111C13.5371 12.1365 13.2354 12.46 12.9333 12.7833C12.7042 13.0286 12.4759 13.2747 12.2485 13.5216C11.9156 13.8828 11.5808 14.2421 11.2453 14.6009C11.0991 14.7572 10.9534 14.914 10.8081 15.071C10.6303 15.263 10.4516 15.4543 10.272 15.6447C10.2073 15.7133 10.1428 15.782 10.0785 15.8509C9.32567 16.6529 8.46041 17.2661 7.48348 17.7673C7.44611 17.7867 7.40875 17.8062 7.37025 17.8262C5.84146 18.6119 4.22334 18.8494 2.51959 18.8377C2.28772 18.8364 2.05596 18.8377 1.8241 18.8392C1.67551 18.8391 1.52692 18.8388 1.37833 18.8383C1.30961 18.8388 1.24089 18.8393 1.17008 18.8398C0.791205 18.8352 0.562359 18.8163 0.274903 18.5615C0.0532496 18.3282 0.0116068 18.141 0 17.8284C0.0116068 17.5158 0.0532496 17.3286 0.274903 17.0953C0.562888 16.8626 0.790497 16.8156 1.15116 16.818C1.1999 16.8174 1.24864 16.8167 1.29886 16.816C1.40275 16.8147 1.50665 16.8138 1.61054 16.8135C1.88103 16.8123 2.15143 16.8068 2.42187 16.8018C2.47477 16.8009 2.52766 16.8 2.58216 16.7991C5.26542 16.7517 7.3022 15.8186 9.15424 13.9042C9.29787 13.7508 9.43492 13.5919 9.57252 13.4331C9.76035 13.2195 9.95658 13.0139 10.1523 12.8076C10.448 12.4948 10.7429 12.1813 11.0343 11.8645C11.2953 11.5808 11.5576 11.2985 11.8208 11.0169C12.0865 10.7327 12.3514 10.4478 12.615 10.1616C12.9148 9.83626 13.2164 9.51267 13.5185 9.18946C13.7476 8.94415 13.9759 8.69804 14.2033 8.45114C14.5362 8.0899 14.871 7.73058 15.2065 7.37181C15.3527 7.21549 15.4984 7.05876 15.6437 6.9017C15.8216 6.70967 16.0002 6.51846 16.1798 6.32803C16.2445 6.25946 16.309 6.19074 16.3733 6.12186C17.1261 5.3198 17.9914 4.70666 18.9683 4.20541C19.0057 4.18598 19.0431 4.16655 19.0816 4.14653C20.6026 3.36477 22.223 3.13044 23.9166 3.10579C23.8728 3.06266 23.829 3.01953 23.7839 2.97508C23.6213 2.81464 23.459 2.65379 23.2969 2.49281C23.2267 2.42326 23.1565 2.35381 23.0861 2.28448C22.9848 2.18469 22.8839 2.0845 22.7831 1.98423C22.7517 1.95342 22.7202 1.92261 22.6878 1.89087C22.3981 1.60122 22.2875 1.38034 22.2672 0.967657C22.3173 0.681361 22.3998 0.43714 22.6184 0.2384C23.0379 -0.0278143 23.4896 -0.111042 23.911 0.197884Z" fill="#FEFEFE"/>
<path d="M16.1658 12.7007C16.5232 12.9415 16.7936 13.2705 17.0736 13.5946C17.3329 13.8911 17.6008 14.1797 17.8687 14.4685C17.9211 14.5271 17.9211 14.5271 17.9746 14.5868C19.3827 16.0966 21.4727 16.7067 23.4698 16.7776C23.6187 16.7821 23.7676 16.7863 23.9165 16.7899C23.8728 16.7468 23.829 16.7036 23.7839 16.6592C23.6212 16.4987 23.459 16.3379 23.2968 16.1769C23.2267 16.1074 23.1564 16.0379 23.086 15.9686C22.9847 15.8688 22.8839 15.7686 22.783 15.6683C22.7516 15.6375 22.7202 15.6067 22.6878 15.575C22.398 15.2853 22.2874 15.0644 22.2671 14.6518C22.3198 14.3508 22.4074 14.149 22.6146 13.9225C22.9193 13.7328 23.19 13.6375 23.55 13.701C24.0448 13.8607 24.425 14.358 24.7813 14.7186C24.827 14.7644 24.8726 14.8102 24.9195 14.8575C25.1125 15.0514 25.3051 15.2457 25.4977 15.44C25.6393 15.5827 25.7811 15.7253 25.923 15.8678C25.9657 15.911 26.0084 15.9543 26.0524 15.9988C26.2956 16.2432 26.5451 16.4758 26.8072 16.7001C26.9302 16.8076 27.04 16.922 27.1467 17.0457C27.1805 17.0844 27.2144 17.123 27.2493 17.1629C27.4487 17.4243 27.4964 17.6385 27.4847 17.9647C27.4067 18.4932 26.8883 18.9139 26.5267 19.2702C26.4728 19.324 26.4189 19.3778 26.3633 19.4333C26.221 19.575 26.0783 19.7164 25.9355 19.8576C25.7912 20.0004 25.6476 20.1439 25.5039 20.2873C25.3931 20.3976 25.2822 20.5078 25.1713 20.618C25.1202 20.6689 25.069 20.7197 25.0164 20.7721C24.72 21.0649 24.4171 21.346 24.0998 21.616C24.0645 21.6462 24.0293 21.6764 23.9929 21.7075C23.6822 21.9707 23.5106 22.0039 23.1078 21.9997C22.7947 21.9678 22.6346 21.8068 22.4313 21.5816C22.2553 21.3274 22.2226 21.0631 22.2671 20.7607C22.5883 20.0127 23.3459 19.4303 23.9165 18.8669C23.8755 18.8664 23.8344 18.8658 23.7921 18.8652C20.9926 18.8167 18.4911 17.9768 16.4636 15.9957C16.4241 15.9571 16.3846 15.9186 16.3439 15.8788C16.2141 15.7515 16.0848 15.6237 15.9558 15.4956C15.9156 15.4557 15.8754 15.4158 15.834 15.3746C15.5969 15.1367 15.3712 14.8921 15.1524 14.6372C15.0929 14.569 15.0319 14.5022 14.9688 14.4374C14.7373 14.1912 14.6447 13.9464 14.6309 13.6132C14.6809 13.2299 14.8372 13.0002 15.1368 12.7637C15.4457 12.5672 15.8305 12.5867 16.1658 12.7007Z" fill="#FEFEFE"/>
<path d="M1.38693 3.13654C1.49614 3.1364 1.49614 3.1364 1.60755 3.13627C1.7618 3.13637 1.91606 3.13707 2.07031 3.13834C2.30278 3.14009 2.53517 3.1396 2.76765 3.1388C5.584 3.14125 8.12772 4.11588 10.1377 6.12656C10.3052 6.30217 10.4655 6.48399 10.6262 6.66578C10.7363 6.78779 10.849 6.90695 10.9622 7.02599C11.0039 7.06979 11.0455 7.1136 11.0884 7.15873C11.1705 7.24493 11.2527 7.33097 11.3352 7.41681C11.3914 7.47614 11.3914 7.47614 11.4488 7.53666C11.4823 7.57167 11.5158 7.60667 11.5503 7.64273C11.7471 7.88136 11.8057 8.11265 11.8208 8.42055C11.7642 8.74435 11.6629 9.02027 11.3849 9.2183C11.0795 9.37259 10.7455 9.44621 10.412 9.34835C9.95413 9.13974 9.62605 8.6779 9.30448 8.30434C9.08869 8.05406 8.86746 7.80891 8.64418 7.5653C8.60741 7.52443 8.57063 7.48356 8.53274 7.44145C7.48912 6.33444 6.04392 5.67118 4.5779 5.34698C4.53476 5.33723 4.49162 5.32748 4.44716 5.31743C3.78282 5.18246 3.09581 5.18091 2.4202 5.17206C2.36899 5.17133 2.31779 5.17059 2.26503 5.16983C2.05445 5.16688 1.8439 5.16396 1.63331 5.16289C1.47686 5.16195 1.32048 5.1595 1.16404 5.15679C1.11689 5.15691 1.06973 5.15702 1.02115 5.15714C0.705111 5.14999 0.527576 5.08233 0.274903 4.87735C0.0532496 4.64403 0.0116068 4.45689 0 4.14428C0.0116068 3.83167 0.0532496 3.64452 0.274903 3.4112C0.616089 3.10727 0.944546 3.13217 1.38693 3.13654Z" fill="#FEFEFE"/>
</svg>
