<svg width="20" height="20" viewBox="0 0 20 20" fill="none" xmlns="http://www.w3.org/2000/svg">
<path d="M8.12308 0.0123414C8.15714 0.0120624 8.1912 0.0117835 8.22629 0.011496C8.26333 0.0113912 8.30037 0.0112863 8.33853 0.0111783C8.37781 0.0109221 8.41708 0.0106659 8.45755 0.0104019C8.58757 0.00963333 8.7176 0.00917794 8.84762 0.00878908C8.89213 0.00863018 8.93663 0.00847128 8.98248 0.00830756C9.21818 0.00749442 9.45388 0.00693678 9.68958 0.00657118C9.93234 0.00614054 10.1751 0.00480009 10.4178 0.00325038C10.6051 0.00222796 10.7923 0.00190425 10.9795 0.0017645C11.069 0.00157526 11.1584 0.00112381 11.2479 0.000398384C11.9304 -0.00479196 12.4118 0.0341866 12.9221 0.512911C13.2147 0.818928 13.2879 1.18643 13.3565 1.58741C13.4729 2.39634 13.4729 2.39634 13.9063 3.07144C14.2287 3.2635 14.5225 3.33795 14.9005 3.2932C15.1338 3.23591 15.3572 3.14681 15.5809 3.0617C15.67 3.02854 15.7593 2.9956 15.8486 2.96278C15.9037 2.94245 15.9587 2.9219 16.0136 2.90107C16.4941 2.72085 16.9574 2.74834 17.4312 2.94229C17.8774 3.1826 18.1417 3.61565 18.3802 4.03643C18.4081 4.08491 18.4361 4.13335 18.4641 4.18177C18.5069 4.25573 18.5497 4.3297 18.5923 4.40376C18.7261 4.63636 18.864 4.86661 19.0028 5.09646C19.0253 5.13398 19.0479 5.17151 19.0711 5.21017C19.1914 5.41018 19.3126 5.60958 19.4348 5.80847C19.4604 5.8504 19.486 5.89233 19.5123 5.93553C19.5611 6.01533 19.6101 6.09497 19.6594 6.17442C19.939 6.63349 20.0763 7.09817 19.9554 7.63199C19.7637 8.23422 19.2331 8.62537 18.7283 8.9852C18.4535 9.18474 18.2169 9.42513 18.1542 9.76545C18.1194 10.1428 18.1803 10.4311 18.4002 10.7451C18.5202 10.8718 18.6616 10.9746 18.8011 11.0801C18.9333 11.1813 19.0625 11.2854 19.1911 11.3908C19.2127 11.4084 19.2344 11.426 19.2567 11.4442C19.6695 11.7831 19.9359 12.1317 19.997 12.6604C20.0161 13.0025 19.9451 13.2932 19.7724 13.5917C19.751 13.629 19.7296 13.6663 19.7076 13.7047C19.6854 13.7429 19.6633 13.781 19.6405 13.8204C19.5982 13.8944 19.5559 13.9685 19.5137 14.0426C19.231 14.5346 18.9434 15.0235 18.6491 15.5091C18.5627 15.652 18.4779 15.7956 18.3949 15.9404C18.0901 16.4701 17.7668 16.9784 17.1374 17.1686C16.5974 17.2903 16.167 17.1537 15.6653 16.968C15.6218 16.9522 15.5782 16.9363 15.5334 16.92C15.4465 16.8882 15.3598 16.8558 15.2734 16.8225C14.9125 16.6903 14.5756 16.6433 14.2051 16.7689C13.8555 16.9255 13.6693 17.136 13.5347 17.4854C13.4717 17.7223 13.4348 17.9654 13.3941 18.2067C13.2915 18.8159 13.177 19.3521 12.6312 19.7399C12.3044 19.939 12.0273 19.9924 11.6474 19.992C11.6081 19.9923 11.5688 19.9925 11.5284 19.9928C11.399 19.9936 11.2696 19.9937 11.1403 19.9938C11.0499 19.994 10.9595 19.9943 10.8691 19.9946C10.6797 19.995 10.4903 19.9952 10.301 19.9951C10.0592 19.9951 9.81737 19.9962 9.57556 19.9975C9.38885 19.9984 9.20214 19.9986 9.01542 19.9985C8.92631 19.9986 8.83721 19.999 8.74811 19.9996C8.12447 20.0034 7.62233 19.9915 7.1478 19.5518C6.73194 19.129 6.66342 18.5956 6.57422 18.0409C6.47065 17.4018 6.47065 17.4018 6.06323 16.9103C5.75371 16.7225 5.46154 16.6632 5.09916 16.7056C4.86582 16.7628 4.64248 16.852 4.41879 16.9371C4.32962 16.9702 4.24036 17.0032 4.15105 17.036C4.09596 17.0563 4.04096 17.0769 3.98607 17.0977C3.50553 17.2779 3.04221 17.2504 2.56849 17.0565C2.12224 16.8162 1.85791 16.3831 1.61949 15.9623C1.59157 15.9139 1.56359 15.8654 1.53556 15.817C1.49276 15.743 1.44998 15.6691 1.40737 15.595C1.27351 15.3624 1.13566 15.1322 0.996867 14.9023C0.974319 14.8648 0.951772 14.8273 0.928541 14.7886C0.808293 14.5886 0.687081 14.3892 0.564889 14.1903C0.53929 14.1484 0.513691 14.1064 0.487316 14.0632C0.438581 13.9834 0.389577 13.9038 0.340251 13.8244C0.0685018 13.3782 -0.077423 12.9276 0.0428446 12.407C0.154534 12.0323 0.354915 11.7245 0.670491 11.481C0.708964 11.4508 0.747437 11.4206 0.787076 11.3895C0.885448 11.3132 0.985016 11.2387 1.08489 11.1643C1.59204 10.788 1.59204 10.788 1.84544 10.2333C1.88022 9.85597 1.81933 9.56763 1.59941 9.25371C1.4794 9.12699 1.338 9.02421 1.1985 8.91864C1.0663 8.81752 0.937168 8.71334 0.808573 8.60795C0.776106 8.58155 0.776106 8.58155 0.742984 8.55461C0.330118 8.21571 0.0637094 7.86712 0.00267525 7.33835C-0.0223325 6.89111 0.130412 6.55604 0.359178 6.17842C0.38775 6.1285 0.416139 6.07849 0.444381 6.0284C0.656654 5.65201 0.876785 5.28034 1.10085 4.91045C1.22949 4.69789 1.35634 4.48453 1.48047 4.26946C1.50688 4.22399 1.53331 4.17852 1.55976 4.13307C1.60969 4.04704 1.65925 3.9608 1.70833 3.87431C1.97898 3.41013 2.32163 2.99356 2.86223 2.8302C3.4022 2.70846 3.83265 2.84503 4.33437 3.03078C4.37789 3.04661 4.4214 3.06245 4.46623 3.07876C4.55318 3.11054 4.63986 3.14302 4.72621 3.17629C5.08717 3.30851 5.42406 3.35548 5.79459 3.22984C6.14409 3.07327 6.3305 2.86281 6.46492 2.51341C6.53528 2.24689 6.57407 1.97244 6.61882 1.70102C6.70937 1.15995 6.82942 0.637815 7.30848 0.291006C7.56894 0.142504 7.81699 0.0140707 8.12308 0.0123414ZM8.31271 1.57766C8.23317 2.01512 8.15364 2.45258 8.07169 2.9033C7.75572 3.70071 7.38801 4.2767 6.58543 4.65783C5.85201 4.94948 5.08814 4.99374 4.33594 4.73581C4.29522 4.722 4.25451 4.7082 4.21255 4.69398C3.91793 4.59358 3.62448 4.49027 3.33171 4.3849C3.31661 4.4103 3.30152 4.4357 3.28596 4.46187C3.26455 4.49789 3.24314 4.53391 3.22109 4.57101C3.197 4.61155 3.17291 4.65208 3.14808 4.69384C3.09408 4.78469 3.04008 4.87555 2.98607 4.9664C2.84754 5.19946 2.70902 5.43253 2.57053 5.66561C2.54513 5.70833 2.51974 5.75106 2.49357 5.79507C2.44327 5.87976 2.39306 5.96449 2.34293 6.04926C2.22656 6.24582 2.1091 6.44146 1.98776 6.63517C1.95601 6.68644 1.95601 6.68644 1.92363 6.73875C1.88433 6.80203 1.84453 6.86503 1.80414 6.92766C1.77853 6.96917 1.77853 6.96917 1.7524 7.01151C1.7373 7.03528 1.7222 7.05904 1.70665 7.08353C1.67607 7.15577 1.67607 7.15577 1.71587 7.23571C1.77794 7.32824 1.84765 7.38131 1.93834 7.44801C2.70276 8.02569 3.36358 8.62907 3.49239 9.60949C3.56428 10.3741 3.41574 11.116 2.90962 11.7235C2.55513 12.1235 2.11629 12.4505 1.68477 12.7676C1.74139 12.9572 1.82819 13.1168 1.93331 13.2842C1.96972 13.3433 2.00606 13.4023 2.04237 13.4614C2.06225 13.4937 2.08212 13.5259 2.1026 13.5592C2.22299 13.7565 2.3403 13.9554 2.45803 14.1542C2.74731 14.6419 3.03904 15.1281 3.33171 15.6139C3.38545 15.595 3.38545 15.595 3.44028 15.5757C3.57475 15.5286 3.70929 15.4817 3.84388 15.4349C3.90183 15.4147 3.95976 15.3945 4.01766 15.3741C4.90051 15.064 5.72558 14.9674 6.60799 15.3558C6.85209 15.4694 7.04932 15.6046 7.24132 15.7892C7.30338 15.8565 7.30338 15.8565 7.38881 15.8478C7.39938 15.8704 7.40994 15.8929 7.42082 15.9162C7.47159 16.0082 7.53006 16.078 7.5997 16.1573C8.1187 16.8003 8.17919 17.6435 8.31271 18.4211C9.4262 18.4211 10.5397 18.4211 11.6869 18.4211C11.7665 17.9836 11.846 17.5462 11.928 17.0955C12.2735 16.2234 12.2735 16.2234 12.6108 15.9258C12.6108 15.9001 12.6108 15.8743 12.6108 15.8478C12.634 15.8376 12.6572 15.8273 12.6811 15.8167C12.7763 15.7674 12.8497 15.7104 12.9322 15.6431C13.5572 15.1679 14.2872 15.0405 15.0612 15.107C15.2702 15.1385 15.4648 15.1948 15.6637 15.263C15.7248 15.2837 15.7248 15.2837 15.7871 15.3048C16.0817 15.4052 16.3752 15.5085 16.6679 15.6139C16.683 15.5885 16.6981 15.5631 16.7137 15.5369C16.7351 15.5009 16.7565 15.4649 16.7786 15.4278C16.8147 15.367 16.8147 15.367 16.8516 15.3049C16.9056 15.2141 16.9596 15.1232 17.0136 15.0324C17.1521 14.7993 17.2906 14.5662 17.4291 14.3332C17.4545 14.2904 17.4799 14.2477 17.5061 14.2037C17.5564 14.119 17.6066 14.0343 17.6567 13.9495C17.7731 13.753 17.8905 13.5573 18.0119 13.3636C18.033 13.3294 18.0542 13.2952 18.076 13.26C18.1153 13.1967 18.1551 13.1337 18.1955 13.0711C18.2126 13.0434 18.2297 13.0158 18.2472 12.9873C18.2623 12.9635 18.2774 12.9397 18.293 12.9152C18.3236 12.843 18.3236 12.843 18.2838 12.7631C18.2217 12.6705 18.152 12.6175 18.0613 12.5508C17.2969 11.9731 16.6361 11.3697 16.5073 10.3893C16.4354 9.6247 16.5839 8.88272 17.09 8.27532C17.4445 7.87527 17.8834 7.54825 18.3149 7.23113C18.2583 7.04154 18.1715 6.88197 18.0663 6.71452C18.0299 6.65551 17.9936 6.59646 17.9573 6.53739C17.9374 6.50511 17.9175 6.47282 17.897 6.43956C17.7767 6.24231 17.6593 6.04332 17.5416 5.84457C17.2523 5.3569 16.9606 4.87066 16.6679 4.3849C16.6321 4.39748 16.5963 4.41007 16.5594 4.42303C16.4249 4.47015 16.2904 4.51706 16.1558 4.56386C16.0978 4.58405 16.0399 4.60432 15.982 4.62466C15.0991 4.93476 14.2741 5.03134 13.3917 4.643C13.1476 4.52937 12.9503 4.39421 12.7583 4.2096C12.6963 4.14227 12.6963 4.14227 12.6108 4.15096C12.6003 4.1284 12.5897 4.10583 12.5788 4.08258C12.5281 3.9906 12.4696 3.92081 12.3999 3.84149C11.8809 3.19844 11.8205 2.35524 11.6869 1.57766C10.5734 1.57766 9.45995 1.57766 8.31271 1.57766Z" fill="#FEFEFE"/>
<path d="M12.3592 6.85201C13.2516 7.5237 13.8205 8.43978 13.9766 9.53154C14.0631 10.6052 13.8009 11.6523 13.0778 12.4874C12.3953 13.2489 11.4843 13.7475 10.4417 13.8594C9.26536 13.9196 8.19414 13.6491 7.30706 12.876C6.55199 12.1974 6.05095 11.2536 6.00956 10.2454C5.99165 9.10646 6.33304 8.10405 7.1478 7.27015C8.50186 5.92211 10.7932 5.73579 12.3592 6.85201ZM8.11186 8.63478C7.72979 9.14256 7.59333 9.73122 7.67 10.3503C7.79062 10.9968 8.16041 11.5035 8.68898 11.904C9.20483 12.2335 9.84342 12.3532 10.4487 12.2452C11.1043 12.1 11.6619 11.7237 12.0259 11.1715C12.3393 10.621 12.4174 9.9971 12.2694 9.38777C12.0893 8.80859 11.6995 8.33432 11.1723 8.01339C10.0802 7.44734 8.90047 7.73721 8.11186 8.63478Z" fill="#FEFEFE"/>
</svg>
