<svg width="20" height="20" viewBox="0 0 20 20" fill="none" xmlns="http://www.w3.org/2000/svg">
<path d="M11.165 0.197147C11.2014 0.210038 11.2377 0.222929 11.2752 0.236211C11.5951 0.354246 11.8789 0.504457 12.1687 0.676599C12.2399 0.718203 12.311 0.759806 12.3821 0.801376C12.4553 0.844184 12.5284 0.887136 12.6014 0.93011C12.8289 1.06374 13.058 1.19493 13.2869 1.32641C13.377 1.37832 13.4672 1.43024 13.5573 1.48218C13.6242 1.52073 13.6242 1.52073 13.6925 1.56006C14.4362 1.9884 14.4362 1.9884 15.1799 2.41674C15.2246 2.44246 15.2692 2.46817 15.3152 2.49466C15.4051 2.54645 15.495 2.59824 15.5849 2.65004C15.8138 2.78192 16.0428 2.91368 16.2719 3.04526C16.4979 3.17507 16.7236 3.30529 16.9492 3.43571C17.0651 3.50251 17.1813 3.56879 17.2976 3.63499C17.6967 3.86394 18.06 4.10571 18.4044 4.4027C18.4539 4.44366 18.4539 4.44366 18.5045 4.48544C19.3466 5.21812 19.8691 6.38362 19.923 7.44852C19.9259 7.54445 19.9282 7.6404 19.9299 7.73636C19.9313 7.78898 19.9327 7.8416 19.9341 7.89422C19.9382 8.05433 19.9411 8.21446 19.9438 8.3746C19.9446 8.42243 19.9454 8.47025 19.9463 8.51953C19.9518 8.85083 19.9546 9.18212 19.9569 9.51345C19.9578 9.61946 19.9587 9.72547 19.9596 9.83149C19.9621 10.1404 19.9644 10.4493 19.9665 10.7583C19.9674 10.8743 19.9682 10.9903 19.9691 11.1064C19.9741 11.8015 19.9787 12.4967 19.9829 13.1918C19.9831 13.219 19.9832 13.2461 19.9834 13.2741C19.9836 13.301 19.9837 13.3279 19.9839 13.3556C19.985 13.5322 19.9861 13.7089 19.9873 13.8855C19.9907 14.3832 19.9935 14.8808 19.995 15.3784C19.9954 15.5218 19.9962 15.6653 19.9972 15.8087C19.9983 15.9743 19.9988 16.1398 19.9989 16.3054C19.999 16.3642 19.9993 16.423 19.9998 16.4818C20.0084 17.4276 19.7015 18.2536 19.0284 18.9664C19.0064 18.9907 18.9844 19.015 18.9616 19.0401C18.431 19.5853 17.5842 19.9292 16.8082 19.9897C16.6592 19.9938 16.5107 19.9946 16.3616 19.9939C16.3045 19.9941 16.2473 19.9943 16.1902 19.9945C16.0347 19.9951 15.8793 19.9949 15.7238 19.9946C15.5556 19.9945 15.3873 19.9949 15.219 19.9953C14.89 19.996 14.5609 19.996 14.2318 19.9958C13.9642 19.9957 13.6965 19.9957 13.4289 19.9959C13.3716 19.996 13.3716 19.996 13.3132 19.996C13.2356 19.9961 13.158 19.9962 13.0804 19.9962C12.3538 19.9967 11.6271 19.9965 10.9005 19.9961C10.2368 19.9957 9.57319 19.9962 8.90954 19.9971C8.22687 19.9981 7.5442 19.9985 6.86152 19.9982C6.47875 19.9981 6.09598 19.9982 5.71321 19.9988C5.38734 19.9994 5.06148 19.9994 4.73561 19.9988C4.56961 19.9984 4.40362 19.9983 4.23762 19.9989C2.72719 20.004 2.72719 20.004 2.082 19.677C2.05455 19.6635 2.02711 19.6501 1.99883 19.6362C1.33803 19.3039 0.825113 18.8452 0.472387 18.2265C0.44238 18.1744 0.44238 18.1744 0.411766 18.1212C0.114658 17.56 0.0514562 16.9514 0.0477894 16.334C0.047378 16.2903 0.0469664 16.2465 0.0465425 16.2014C0.045229 16.056 0.0441946 15.9107 0.0431677 15.7653C0.0425207 15.6879 0.0418735 15.6104 0.0412072 15.5329C0.0383233 15.1975 0.0358929 14.8621 0.0335446 14.5267C0.0327243 14.4106 0.0318751 14.2945 0.0310243 14.1784C0.0253796 13.4075 0.0204961 12.6366 0.016184 11.8657C0.0152353 11.6961 0.0142606 11.5264 0.0132599 11.3568C0.00953959 10.7253 0.00663239 10.0937 0.00510843 9.46217C0.00465049 9.27856 0.00391064 9.09497 0.00292201 8.91137C0.0017848 8.69621 0.00127371 8.48105 0.00124092 8.26589C0.00113292 8.18824 0.00081817 8.11059 0.000264526 8.03294C-0.00389724 7.41759 0.0390854 6.81086 0.26956 6.22802C0.281983 6.19587 0.294405 6.16372 0.307204 6.13059C0.812802 4.8729 1.8163 4.08547 3.01398 3.41915C3.19868 3.31573 3.38146 3.20949 3.5642 3.10306C3.88795 2.91502 4.21217 2.72771 4.53672 2.54086C4.58214 2.51472 4.62756 2.48857 4.67435 2.46163C4.76691 2.40835 4.85947 2.35508 4.95203 2.3018C5.13362 2.19728 5.31518 2.0927 5.49674 1.98812C5.58661 1.93636 5.67648 1.8846 5.76636 1.83284C5.99334 1.70212 6.22028 1.57136 6.44716 1.4405C6.62796 1.33622 6.80885 1.23208 6.98982 1.12806C7.16544 1.02712 7.3407 0.925654 7.51574 0.823842C8.62986 0.178095 9.85626 -0.279433 11.165 0.197147ZM8.50225 1.87158C8.47132 1.8893 8.4404 1.90703 8.40853 1.92529C8.22868 2.02861 8.04932 2.13267 7.8702 2.2371C7.61427 2.38629 7.35752 2.53423 7.10066 2.68202C7.00862 2.73501 6.91658 2.78799 6.82454 2.84098C6.77861 2.86741 6.73268 2.89385 6.68536 2.92108C6.45885 3.05147 6.23239 3.18192 6.00592 3.31237C5.91577 3.36429 5.82563 3.41621 5.73548 3.46813C5.69086 3.49383 5.64624 3.51953 5.60027 3.54601C5.19461 3.77965 5.19461 3.77965 5.05926 3.8576C4.96954 3.90928 4.87984 3.96098 4.79015 4.01269C4.55833 4.14633 4.32629 4.27959 4.09385 4.41228C3.82892 4.56359 3.56477 4.71605 3.30156 4.86998C3.27158 4.88747 3.2416 4.90497 3.21071 4.92299C2.39985 5.40185 1.79952 6.09803 1.56367 6.97517C1.47094 7.36829 1.45395 7.74141 1.45727 8.14294C1.45738 8.21297 1.45744 8.283 1.45745 8.35303C1.45765 8.54466 1.45866 8.73628 1.45984 8.9279C1.46075 9.09086 1.46123 9.25381 1.46171 9.41677C1.46306 9.87366 1.46544 10.3305 1.4682 10.7874C1.47034 11.146 1.47215 11.5045 1.4738 11.8631C1.47688 12.5338 1.48065 13.2045 1.48486 13.8751C1.48618 14.0866 1.48733 14.2981 1.48843 14.5096C1.48978 14.77 1.49145 15.0303 1.49349 15.2907C1.49453 15.4249 1.49545 15.5591 1.49602 15.6933C1.48949 16.9894 1.48949 16.9894 2.17935 18.0754C2.66498 18.5102 3.1985 18.6278 3.84915 18.6266C3.90404 18.6268 3.95893 18.627 4.01548 18.6272C4.16722 18.6277 4.31896 18.6278 4.4707 18.6278C4.63461 18.6278 4.79851 18.6284 4.96242 18.6288C5.32054 18.6297 5.67867 18.63 6.0368 18.6302C6.26063 18.6303 6.48447 18.6306 6.7083 18.6309C7.32865 18.6316 7.949 18.6323 8.56936 18.6324C8.60902 18.6324 8.64869 18.6324 8.68956 18.6324C8.76997 18.6324 8.85038 18.6324 8.93079 18.6324C8.97071 18.6324 9.01062 18.6325 9.05174 18.6325C9.09171 18.6325 9.13167 18.6325 9.17284 18.6325C9.81999 18.6326 10.4671 18.6337 11.1143 18.6351C11.7795 18.6366 12.4447 18.6374 13.1099 18.6374C13.4831 18.6374 13.8563 18.6377 14.2295 18.6389C14.5473 18.6398 14.8651 18.6401 15.183 18.6395C15.3449 18.6392 15.5068 18.6393 15.6688 18.6401C16.5686 18.6448 17.2613 18.6271 17.9568 18.0295C18.3419 17.6589 18.5399 17.1575 18.5393 16.6446C18.5394 16.6021 18.5394 16.6021 18.5395 16.5587C18.5397 16.4637 18.5392 16.3687 18.5388 16.2737C18.5387 16.2042 18.5387 16.1346 18.5388 16.0651C18.5387 15.8735 18.5381 15.682 18.5374 15.4904C18.537 15.369 18.5367 15.2476 18.5365 15.1261C18.5354 14.5519 18.5331 13.9776 18.5303 13.4034C18.5294 13.2104 18.5285 13.0174 18.5277 12.8244C18.5243 12.0684 18.5201 11.3124 18.5153 10.5565C18.5139 10.346 18.5128 10.1354 18.5117 9.92489C18.5103 9.66527 18.5086 9.40564 18.5066 9.14602C18.5056 9.01228 18.5046 8.87853 18.5041 8.74479C18.4982 7.52317 18.4297 6.48332 17.5306 5.53196C17.5087 5.50817 17.4867 5.48438 17.464 5.45986C17.0617 5.05363 16.4905 4.78691 15.9895 4.504C15.7628 4.37603 15.5374 4.24621 15.3125 4.11551C14.6022 3.70312 13.8903 3.29322 13.1759 2.88708C12.9139 2.73799 12.6529 2.58753 12.3924 2.43621C12.2846 2.37377 12.1769 2.31136 12.0691 2.24896C11.99 2.20309 11.9109 2.15714 11.8318 2.11115C11.705 2.03753 11.5781 1.96426 11.451 1.89105C11.4126 1.86864 11.3742 1.84622 11.3346 1.82313C10.3274 1.24474 9.49936 1.29828 8.50225 1.87158Z" fill="#FEFEFE"/>
<path d="M7.63235 14.6238C7.6913 14.6236 7.75024 14.6234 7.80919 14.623C7.96848 14.6223 8.12775 14.6226 8.28704 14.6231C8.45419 14.6235 8.62134 14.6231 8.78849 14.6229C9.06912 14.6226 9.34974 14.623 9.63037 14.6237C9.95425 14.6245 10.2781 14.6243 10.602 14.6234C10.8807 14.6227 11.1594 14.6226 11.4381 14.623C11.6042 14.6233 11.7704 14.6233 11.9366 14.6228C12.0929 14.6223 12.2491 14.6226 12.4054 14.6235C12.4897 14.6238 12.574 14.6234 12.6583 14.6229C12.9568 14.6255 13.1594 14.6462 13.4117 14.7998C13.6154 15.0002 13.6323 15.1667 13.6285 15.4336C13.6119 15.6346 13.5275 15.7534 13.3701 15.8828C13.1976 16.0005 13.0836 16.0119 12.8755 16.0129C12.8244 16.0132 12.7732 16.0136 12.7205 16.0139C12.6637 16.0141 12.6069 16.0143 12.5501 16.0144C12.4904 16.0147 12.4307 16.0151 12.3709 16.0154C12.1747 16.0164 11.9784 16.017 11.7821 16.0176C11.7145 16.0178 11.6469 16.018 11.5792 16.0182C11.2979 16.019 11.0165 16.0198 10.7352 16.0202C10.3323 16.0208 9.92936 16.0221 9.52646 16.0243C9.24301 16.0258 8.95956 16.0266 8.6761 16.0268C8.50689 16.027 8.3377 16.0274 8.16849 16.0287C8.00917 16.0299 7.84989 16.0301 7.69057 16.0296C7.63227 16.0296 7.57397 16.03 7.51568 16.0306C7.18616 16.0343 6.92271 16.0297 6.67161 15.8122C6.50483 15.6319 6.47609 15.4531 6.48682 15.2172C6.51611 15.0483 6.57916 14.9171 6.71321 14.7998C7.01434 14.6189 7.28084 14.6218 7.63235 14.6238Z" fill="#FEFEFE"/>
</svg>
