<svg width="20" height="20" viewBox="0 0 20 20" fill="none" xmlns="http://www.w3.org/2000/svg">
<path d="M8.04112 3.67537e-05C8.07424 4.50036e-05 8.10736 5.3253e-05 8.14149 6.17529e-05C8.70598 0.00145784 9.24612 0.04705 9.79825 0.170698C9.83009 0.177379 9.86193 0.184061 9.89474 0.190945C10.8742 0.399786 11.8314 0.836804 12.6448 1.41896C12.6836 1.44662 12.7224 1.47427 12.7623 1.50277C13.0026 1.6784 13.2255 1.86618 13.4432 2.069C13.5279 2.14741 13.6142 2.22233 13.7024 2.29664C14.2379 2.76626 14.6762 3.38115 15.0227 4.00066C15.0618 4.0706 15.102 4.13992 15.1421 4.20927C15.7176 5.22274 16.0769 6.4713 16.0841 7.63894C16.0844 7.66913 16.0846 7.69932 16.0849 7.73042C16.0894 8.36472 16.0937 8.98781 15.9592 9.61068C15.9518 9.64647 15.9445 9.68226 15.937 9.71914C15.7162 10.7736 15.2949 11.7734 14.6724 12.6533C14.6517 12.6828 14.631 12.7123 14.6096 12.7426C14.566 12.8042 14.5218 12.8653 14.4774 12.9264C14.5395 13.0801 14.6457 13.1829 14.7619 13.297C14.7831 13.3182 14.8044 13.3394 14.8263 13.3612C14.8976 13.4323 14.9692 13.503 15.0408 13.5738C15.092 13.6246 15.1432 13.6755 15.1943 13.7264C15.3046 13.8361 15.4149 13.9456 15.5254 14.055C15.7001 14.2282 15.8745 14.4018 16.0489 14.5755C16.5447 15.0692 17.0409 15.5626 17.5377 16.0554C17.812 16.3275 18.086 16.6 18.3596 16.8729C18.5327 17.0454 18.7061 17.2175 18.8799 17.3893C18.9882 17.4966 19.0961 17.6043 19.2039 17.7121C19.2538 17.7618 19.3038 17.8113 19.354 17.8607C19.9585 18.4552 19.9585 18.4552 20 18.8547C19.9937 19.1986 19.9794 19.4299 19.7379 19.682C19.4468 19.9542 19.2282 20.0102 18.8313 19.9986C18.2785 19.9531 17.8557 19.3542 17.4844 18.9816C17.4352 18.9323 17.3859 18.8831 17.3367 18.8338C17.2042 18.7013 17.0718 18.5686 16.9394 18.4359C16.8007 18.2968 16.6618 18.1579 16.5229 18.0189C16.2604 17.7562 15.9981 17.4935 15.7358 17.2307C15.4369 16.9312 15.138 16.6319 14.839 16.3327C14.2244 15.7175 13.61 15.1021 12.9957 14.4867C12.8596 14.5392 12.7519 14.5942 12.635 14.6817C11.7884 15.2839 10.8391 15.6858 9.82993 15.9203C9.77999 15.9319 9.77999 15.9319 9.72904 15.9438C9.1751 16.066 8.63295 16.102 8.06793 16.1007C8.03374 16.1007 7.99956 16.1006 7.96434 16.1006C7.39358 16.099 6.84664 16.0586 6.28886 15.93C6.23519 15.9181 6.23519 15.9181 6.18043 15.9059C4.85533 15.604 3.67478 14.9526 2.66249 14.0576C2.63186 14.0307 2.63186 14.0307 2.60061 14.0032C1.12283 12.6969 0.188225 10.7941 0.010953 8.83052C0.00495469 8.71719 0.00281471 8.60404 0.00166164 8.49057C0.00127798 8.45918 0.000894321 8.42779 0.000499034 8.39544C-0.0221703 6.05661 0.726966 4.0001 2.3577 2.30914C3.4164 1.23533 4.79345 0.521033 6.25474 0.18045C6.2877 0.172697 6.32066 0.164943 6.35462 0.156955C6.91474 0.0328334 7.46955 -0.00128742 8.04112 3.67537e-05ZM6.75678 2.16012C6.72472 2.16787 6.69265 2.17562 6.65962 2.1836C5.09553 2.5715 3.72798 3.53634 2.88678 4.92232C2.59327 5.41987 2.3834 5.92648 2.22138 6.48027C2.21192 6.51253 2.20245 6.54478 2.1927 6.578C2.05791 7.06231 2.02383 7.54061 2.02641 8.0406C2.0265 8.06993 2.02658 8.09925 2.02667 8.12947C2.02863 8.55656 2.04408 8.96205 2.15558 9.37663C2.16333 9.40661 2.17107 9.43659 2.17906 9.46747C2.59929 11.0719 3.58682 12.4255 5.02001 13.2766C5.94346 13.804 6.96951 14.0746 8.03137 14.0698C8.08251 14.0696 8.13365 14.0694 8.18633 14.0691C9.63072 14.0512 10.9882 13.5013 12.0599 12.5363C12.1101 12.4947 12.1604 12.4532 12.211 12.412C12.3583 12.2843 12.482 12.1405 12.6058 11.9902C12.6384 11.9512 12.671 11.9122 12.7046 11.8721C13.3118 11.1332 13.6955 10.2998 13.9315 9.37663C13.9421 9.33555 13.9421 9.33555 13.9529 9.29363C14.2905 7.90426 13.9939 6.35702 13.3076 5.12474C13.2941 5.09992 13.2805 5.0751 13.2665 5.04952C13.0594 4.67366 12.8198 4.34656 12.5278 4.03251C12.5049 4.00771 12.482 3.9829 12.4585 3.95735C12.0887 3.56069 11.6994 3.22987 11.241 2.94028C11.203 2.9161 11.203 2.9161 11.1643 2.89142C10.2328 2.30793 9.14738 2.02594 8.0533 2.0309C7.9764 2.03123 7.9764 2.03123 7.89795 2.03157C7.50607 2.03644 7.1371 2.06608 6.75678 2.16012Z" fill="#FEFEFE"/>
</svg>
